<?xml version="1.0" encoding="UTF-8"?>
<svg id="Layer_1" xmlns="http://www.w3.org/2000/svg" version="1.1" xmlns:xlink="http://www.w3.org/1999/xlink" viewBox="0 0 3616 1184">
  <!-- Generator: Adobe Illustrator 30.0.0, SVG Export Plug-In . SVG Version: 2.1.1 Build 123)  -->
  <defs>
    <style>
      .st0 {
        fill: #1c1e1d;
      }
    </style>
  </defs>
  <g>
    <path class="st0" d="M1271.22,245.65c-44.54,11.13-89.83,19.76-134.45,30.55-27.59,6.67-61.54,19.58-88.56,23.46-1.2.17-3.27.56-2.98-1,5.25-7.36,11.26-14.05,17-21,1.31-1.58,5.27-3.97,2-6-26.3,16.75-53.22,32.67-77,53l8,1c.29,2.28-.03,3.89-1.06,5.94-5.36,10.66-24.35,29.95-32.59,41.41-27.05,37.65-50.86,77.6-72.37,118.63h83c4.62,0,19.8-4.98,24.96-7.04,6.15-2.45,19.35-12.16,23.37-12.5,4.57-.39,10.92,5.86,15.62,7.59,6.58,2.42,12.52,3.3,19.07,5.02,2.11.55,7.04-.27,5.99,3.91-2.06,8.16-38.56-11.24-40.87-11.04-4.37.36-12.45,8.63-17.34,10.87-19.02,8.7-61.01,10.8-82.71,11.29-11.74.27-25.93,1.67-36.27-4.02-5.9-7.58,84.83-149.09,103.16-161.11.39-5.27-.83-2.04-3.42-1.42-22.24,5.33-58.56,60.06-71.39,80.61-24.22,38.8-43.54,81.42-51.19,126.81,40.51-11.09,28.93,44.81,17.63,65.62-11.29,20.79-34.38,17.74-41.15-4.06-.97-3.13,1.33-12.56-3.43-10.53-9.96,11.48-21.16,17.65-36.16,19.85-2.68,18.2-6.55,36.58-4.85,55.11.51,5.63,5.38,30.57,7.51,34.49,2.45,4.51,6.87,5.09,9.45,8.55,8.62,11.58-3.38,32.79-3.03,46.86,1.55,61.73,35.92,119.52,73.26,166.9,83.54,106,201.62,178.2,321.83,236.18l2.95-.96c.96-1.38-15.07-8.68-7.03-8.98l59.04,35.95c-24.08-5.1-48.87-17.2-71.35-27.63-241.73-112.13-492.46-335.47-369.62-630.32C945.51,217.42,1400.89,115.02,1702.24,101.67c345.39-15.3,874.76,70.81,1106.93,353.03,291.9,354.82-140.75,661.79-461.16,730.73l-16.77-1.76c16.57-5.16,34.19-14.01,47.04-25.97,1.79-1.67,11.05-9.96,8.93-12.05-3.77,1.62-17.54,5.66-15.99-1.99,7.05-.2,13.83-3.03,21.03-2.03,2.01.28,4.33-.54,2.95,2.98-3.65,9.34-19.07,19.1-26.64,25.37-1.76,1.46-6.46,3.97-.4,3.61,34.72-9.62,71.97-30.84,90.19-61.98-3.92-8.48-33.07.13-42.09.19s-18.69-2.7-27.82-3.71l-21.19,33.55c.88-14.16,10.92-25.94,17.31-38.08,10.96-.66,20.7,2.37,31.75,2.16,9.81-.18,37.42-7.66,44.41-1.6,5.34,8.59,1.73,13.62-3.55,20.46-9.93,12.85-25.37,22.02-37.93,32.07,21.66.22,49.8-24.97,55.04-44.94,10.52-40.07-47.76-10.27-65-21.06,1.39-1.14,1.39-3.41,2.49-4.51,2.25-2.26,28.97-12.46,34.42-14.53,16.21-6.16,59.88-15.96,70.52-23.47,2.56-1.81,5.32-2.56,4.5-6.48-30.84,3.98-61.82,10.83-93.01,5.97l-2.98-3.96,94.11-38.92c3.82-.49,16.63-14.47,13.88-17.1l-112.9,27.93-3.08-4.9c1.72-7.89,48.2-26.83,58.03-32,22.76-11.98,46.11-24.36,67.78-38.22,6.68-4.27,70.95-46.77,60.17-56.81-13.58-2.61-24.78,6.92-36.45,10.7-3.61,1.17-7.17-.48-11.05.59-11.17,3.08-22.38,12.45-34.17,14.98.41,14.75-1.05,26.3-13.32,35.7s-53.64,20.71-70.56,25.44c-20.18,5.64-80.86,15.43-93.42,24.58-14.04,10.23-25.15,25.85-41.96,36.04s-61.94,28.07-63.04-4.04c6.62-1.32,2.72,5.28,5.78,9.19,9.17,11.73,45.63-3.83,56.04-10.38,13.53-8.52,35.94-34.44,47.02-38.98,44.24-18.12,106.48-18.38,151.19-42.81,14.21-7.76,18.07-14.11,17.95-31.02l-79.98,26.01c-.36,3.75,6.48,1.92,8.51,1.5,7.46-1.54,48.14-16.85,51.31-11.36l-.17,7.52c-17.24,7.96-35.4,13.88-53.62,19.35-20.71,6.21-57.42,17.85-77.55,20.45-4.7.61-21.7,1.67-24.61-.36l-2.85-15.1-45.02,8.87-1.99,5.1,7.98-1.97c-3.84,9.5-23.93,16.01-32.62,13.97-1.76-.41.15-4.06-6.24-4.2-16.39-.37-36.16,6.26-53.13,4.23l6.01,31.99c17.12-11.97,35.59-29.36,40.25,3.73,34.15,5.27,52.54-29.79,81.73-37.71-20.99,15.2-46.06,41.9-73.28,43.85-20.25,1.45-11.46-10-16.54-18.55-5.03-8.48-24.8,10.32-29.85,14.02l-2.34,46.65c23.15,2.74,44.59,7.91,53.53,31.49,8.33,21.99,3.9,34.17-5.5,54.52,18.64-5.82,36-10.15,53.32-19.66,16.46-9.03,33.1-18.46,28.64-40.34-42.71,30.64-94.54,17.17-73.91-43.93l11.87,2.03c-10.46,34.34,20,38.1,44.69,25.54,12.98-6.6,30.28-29.21,29.22-44.35s-13.86-18.87-2.89-33.32c10.19-13.44,14.73-7.56,21.86,4.2,12.74,21.01,16,51.72,17.19,75.83l33.97-18.02c.36-2.92-5.24-3.59-7.16-3.79-7.55-.8-15.28.17-22.83-.17l2.52-21.51,97.48-36.49c1.3,4.99-4.71,5.48-8.04,6.91-12.95,5.52-26.88,8.92-39.93,14.11-9.94,3.96-37.98,13.86-44.81,19.19-5.39,4.21-3.44,13.79-.22,13.79h34c1.11,0,4.4,2.94,7,2.02l-57.99,31.97c.59-20.09-1.35-40.64-6.99-60.01-2.13-7.33-14.89-43.69-23.52-23.45-3.86,9.07,4.58,17.79,5.69,27.43,2.07,17.91-14.94,39.82-29.81,48.42-27.99,16.18-64.73,13.4-53.42-27.42l-3.95-.97c-.65,14.89-9.34,35.45,5.29,45.71,20.1,14.09,51.96,2.09,67.78-13.62,6.11-6.07,13.1-19.77,18.83-24.73,2.25-1.95,3.3-1.5,6.08-1.36,19.8,79.57-74.48,111.34-135.98,115.99.36-2.97,7.11-4.7,9.57-5.41,11.37-3.27,24.82-4.31,36.45-7.55,44.01-12.27,97.31-40.97,85.95-95.02-3.5,6.34-18.7,19.64-20.5,24.55-2.09,5.72,3.69,13.61-.46,23.43-5.34,12.63-32.44,27.84-45.05,32.98-10.03,4.09-36.86,12.49-46.96,13.07-2.49.14-4.16-.03-2.98-3,4.37-10.99,15.26-18.05,15.59-34,1.37-67.67-87.8-45.78-129.61-53.05-3.71-4.49,10.05-13.41,13.35-15.63,8.24-5.55,41.35-20.25,44.76-25.74,6.29-10.13-9.85-39.06-.12-45.63s55.14-3.12,68.87-9.02c2.5,9.92,32.5,1.02,25.13-7.95-33.16,6.56-67.08,8.02-100.78,9.86-1.34,15.84-19.39,18.03-30.02,10.38-3.22-2.32,1.39-9.93-4.16-8.26-1.71.52.12,4-6.43,5.51-17.19,3.96-38.82,3.5-56.59,6.5l2.03,20c17.12-17.52,48.15-15.59,70.79-11.81,3.91.65,8.44,1.7,11.17,4.83-24.12,2.58-53.55-9.08-73.98,8,26.75,5.85,56.4,1.61,81.98,14.02.7,3.16-2.67,4.13-4.59,5.37-9.81,6.36-21.69,10.8-32.03,17.97-7.05,4.89-11.84,10.52-18.38,15.58l-7.99-23.91c-17,13.21-26.45,26.58-50.04,23.96-11.28-1.25-10.95-6.7-12.75-17.21-1.59-9.31-2.27-56.11-9.48-58.51l-12.74-.26c6.72,22.03,2.76,79.25,22.54,92.45,26.79,17.88,41.49-10,59.44-24.46,6.72,39.63,45.36,27.42,73.13,27.91,17.12.3,48.18,4.39,59.95,18.03,18.43,21.36,7.84,60.51-23.93,55.92-35.14-5.08-6.81-47.61,4.88-15.89-6.51,1.18-8.13-2.3-8.02-7.99-10.73.32-13.6,11.51-3.81,16.84,14.49,7.9,31.26.41,33.65-16.01,8.42-57.98-73.58-41.43-106.78-44.85-8.24-.85-12.09-4.55-18.01-6s-1.02,2.87-1.02,3.03v46c0,2.24,7.04,14.49,9.13,16.87,9.55,10.87,29.04,15.67,39.75,4s11.67-29.62-7.47-29.91l-1.39-5.96c36.37,3.43,20.81,49.06-8.95,48.09-38.21-1.25-42.73-56.92-33.94-84.26l-12.1-15.81-13.02,15.94c19.2,8.89,15.16,15.76,4,30l12.02,11.01c-8.8,20.52-18.04,17.71-27.74-.31l7.74-11.62c-2.38-8.06-11.38-11.74-10.12-20.93-57.85,8.37-46.18-65.04-53.93-102.08-17.42-4.59-39.21,1.09-55.64-3.45-3.54-.98-5.19.63-4.32-4.56l82.67,5.83c7.1,4.58,5.84,59.29,10.2,70.28,12.12,4.66,23.09,2.52,33.76-4.48,5.35-3.51,22.1-22.58,28.94-13.18,1.94,2.67.46,17.69,5.4,15.52l41.01-27.96-82.79-11.8-3.58-27.83-11.6-2.39c5.41,16.51,8.02,35.82,9.73,53.24.47,4.72,3.27,16.82-1.72,18.74l-10.02-76c7.48-3.15,14.4,5.59,18.88,5.81,8.96.44,36.98-4.43,47.89-6.04,2.24-.33,9.32-.72,9.23-3.74l-106-6.03c-1.48,1.48,3.49,12.03-3.98,10l1.15-8.11-10.13-3.91-1.04,10.02-80-4v26.01h59.01c12.46,0,18.79,13.33,12.61,23.62-20.61,2.34-111.9,21.7-117.32,41.83-1.09,4.05,6.54,23.47,10.67,22.53,2.35-.53,26.86-28.5,34.38-33.64,24.05-16.43,49.7-21.27,71.7,1.62,15.78,16.41,9.07,21.63,13.43,38.57,1.48,5.76,10.15,12.03,11.16,21.01,2.84,25.21-30.95,50.88-51.67,59.43-6.61,2.72-24.56,10.57-27.95,3.06,26.51-3.25,78.13-31.88,73.9-62.86-1.21-8.88-9.5-13.56-11.14-19.11-2.42-8.2,3.27-15.23-5.1-28.72-31.01-50.02-83.71-2.72-108.94,26.54-6.87,1.22-12.96-21.83-15.74-21.83-13.2,11.4-20.9,34.07-41.71,21.66-40.86-24.38-19.93-99.88-21.55-138.44l-15.74-5.25-6.01,207.99h-32c-1.05,7.59,2.91,17.95-3.03,23.98-4.84.96-2.84-3.89-2.97-6.96-.31-7.46-.56-15.61,3.92-22.09l28.08-.92v-49c0-.46,3.81-2.68.98-3.01l-2.94.03c-6.33,11.95-22.21,21.52-33.41,29.61-19.5,14.08-51.33,37.71-71.59,48.41-3.47,1.83-6.98,3.82-11.03,3.95-1.21-5.19,1.54-3.49,3.77-5.15,25.46-18.89,53.36-34.47,78.84-53.21,9.76-7.18,33.96-24.07,36.89-35.11l4.57-139.21c-5.55-1.18-24-12.28-27.09-12.55-4.07-.36-11.05,6.65-15-2.74,16.97,4.57,12.72-12.45,23.98-20.02-.45,3.73-.88,9.1-2.15,12.46-.55,1.44-6.62,2.79-3.67,7.35,1.69,2.62,44.85,16.39,51.76,16.25l-4.01,50.85c1.09,31.79-7.84,76.66,29.16,90.62,2.1-.32,10.85-21.95,13.31-26.15,14.02-23.94,40.74-45.85,69.6-44.4-25.94,9.99-44.44,17.51-61.25,40.75-4.6,6.36-13.01,18.55-11.75,26.25,10.56-10.57,19.36-23.5,30.98-33.02,20.16-16.5,50.76-24.23,76-30,6.55-1.5,34.48-4.03,35.89-8.19,1.09-5.47-1.32-9.67-6.92-10.73-10.16-1.91-63.69,2.14-67.04-1.04l-.78-31.07-19.13-1.95v34c-10.35,1.02-25.55-4.36-35.11-3.79-3.02.18-5.01,3.42-7.98,3.71-3.61.35-19.73-.09-20.59.48-2.63,1.76-4.24,12.21-8.3,13.59-4.81-9.82,13.5-19.49,14.01-21.4,1.11-4.13-.47-12.28-.01-17.57,1.24-14.34,3.44-28.86,5.14-43.12l-125.2-47.06c-15.52,24.02-12.05,56.14-15.58,83.62l27.65,51.54c4.92,3.61,21.47-29.76,26.94-34.01,13.63-10.6,18.49,6.55,21.02,18.01l-13.3-15.6c-6-1.23-10.13,8.56-12.28,12.92,4.51,15.89,21.4,56.43,17.15,71.25-1.42,4.95-13.27,14.64-17.72,18.28-24.49,20.04-59.41,41.9-86.4,59.6-9.75,6.39-26.89,19.72-36.77,23.45-3.85,1.45-4.74,1.11-8.67.09,36.23-25.53,74.65-48.45,110.63-74.35,5.89-4.24,31.56-22.35,32.95-27.04,4.78-16.17-11.39-47.61-13.59-64.59-3.29-3.05-13.98,17.27-13.98,18.99,0,8.84,30.42,40.52,12.01,53,1.01-26.68-18.57-54.2-31.68-77.34-15.17-26.78-20.04-22.63-18.43-57.74.93-20.32,4.12-45.03,15.71-61.95l-17.6-10.97c-7.62,14.95-11.99,28.22-14,45.03-5.64,47.11,1.11,97.07-1.95,144.05-.7,10.7-3.24,39.42-20.13,34.12-19.65-6.16-19.84-46.61-25.42-62.74l-4.51-32.45c-3.23,12.23-4.48,24.4-4.1,37.07.34,11.33,7.66,38.31,2.93,46.75-9.95,17.74-31.71-3.02-28.86-17.82-2.66-3.21-13.79,17.19-16.9,20.07-21.44,19.84-23.09-22.9-28.12-24.07-12.48,7.34-12.96,28.54-30.28,29.41-14.63.73-20.65-22.93-44.76-16.47-30.2,8.09-55.22,71.71-68.91,97.15-1.51,2.81.15,4.91-5.01,3.89-.26-7.16,3.44-14.32,6.27-20.7,10.44-23.52,40.1-76.66,64.61-85.39,26.59-9.47,34.41,16.95,47.96,16.08s19.26-29.12,30.05-28.08c9.37.9,8.64,16.75,13.07,23.11,12.06,17.32,20.76-22.36,32.97-21,2.63.7,6.39,30.32,18.99,25.08,10.91-4.54,2.56-21.37,2.1-30.12-.54-10.23-2.9-58.46,9-60.96,7.86,3.42,6.02,21.7,7.52,30.44,2.02,11.71,10.27,58.41,18.87,63.66,13.85,8.44,15.93-11.36,16.65-21.04,3.41-46.08-2.31-93.74,1.95-140.05,1.93-21.01,4.91-39.47,15.83-57.82-48.75-30.62-95.21-64.2-119.88-118.17-2.42-5.29-10.05-30.11-11.32-31.17-2.38-1.99-23.91-9.18-27.81-9.68-33.62-4.24-40.12,17.63-62.83,34.83,24.52,7.27,57.52.52,69.97,28.99-18.03-23.08-44-17.01-68.54-22.44-23.12-5.11,19.24-20.84,16.54-31.56l-37.64,18.32,2.62,23.72,2.29,1.71c23.94,4.55,64.88-3.87,80.38,17.62,5.63,7.8,16.54,27.12,12.85,36.12-6.03,14.71-39.95,37.2-40.65,53.57-.06,1.47,4.4,13.51-.81,10.93-16.79-8.31,11.31-36.22,17.95-44.01,6-7.05,19.86-16.22,20.66-25.48.43-4.98-10.92-26.1-14.75-30.37-13.74-15.3-48.65-10.35-67.78-12.26l-2.08,6.13-9-5.98,3.27,9.71c12.72-.16,24.23,4.98,36.71.28,2.6,17.04-35.14,1.03-40,5.98-1.41,20.96,5.16,11.45,17.22,10.23,47.37-4.8,31.93,51.03.8,61.77-2.13-3.96,8.31-19.89,9.97-17.99l1.07,6.05c17.32-21.87,22.78-46.87-14.02-44.01-26.72,2.08-50.71,19.2-76.82,24.16l-.19,13.8c23.53-3.78,64.41-31.62,87.47-22.48,4.3,1.71,9.55,7.32,8.5,12.48-8.16-7.96-19.44-14.5-30.12-6.68l5.02,56.8c16.85,10.01,16.78-14.19,31.1-14.11,3.38,13.22-.52,39.65,21.18,30.14,14.5-6.35,47.52-59.99,50-76.07,1.91-12.38-5.09-18.04-5.32-29.08-.21-9.91,7.45-17.42,3.12-26.97-2.57-5.68-14.9-10.05-20.95-10.05l-1.98,6-4.04-15.98-5.97,1.99,1.18-6.17c8.61-3.18,16.65-5.87,25.63-2.03l1.15,8.2c-3.15.63-1.94-3.72-3.91-5.05-3.77-2.55-9.01-.24-12.91.85-5.53,13.12,7.82,8.56,15.59,12.46,19.14,9.6,7.41,25.04,7.55,36.79.11,9.19,7.27,15.67,5.52,29.8-2.19,17.73-33.44,65.61-47.79,76.21-21.52,15.9-33.68-4.19-32.06-25.04-42.09,47.12-32.59-20.47-35.98-45.05-.39-2.8,1.13-3.42-2.93-2.91-3.32.42-14.02,3.97-14.73,7.14,4.88,14.75,3.37,65.3,14.22,74.24,9.74,8.03,26.32.08,32.44-9.38,10.71,15,9.4,31.24,33.59,25.54,19.03-4.48,49.63-64.07,56.39-65.02,5.97,1.43,9.7,10.04,11.99,15.47,17.38,41.15,13.42,117.57-37.87,132.08-23.14,6.55-30.1-1.15-40.91-19.24-1.07-1.79,1.02-3.96-4.16-2.85-11.6,17.46-16.68,72.01-32.08,82.93-13.86,9.83-25.94-6.86-27.78-20.12-3.15-22.65,2.82-43.26,7.84-64.81,3.49-.4,2.19,6.91,1.96,8.96-1.11,9.67-5.2,20.06-5.95,30.06-.89,11.89.57,53.59,21.11,41.09,9.66-5.88,19.23-55,25.34-68.64,3.3-7.38,5.38-14.27,15.35-13.35,8.43,29.21,35.66,27.67,56.19,10.88,25.03-20.47,26.55-55.74,23.72-85.77-.36-3.83-9.44-45.57-15.71-41.26l-8.13,16.88c.03,1.02,3.42.97,3.95,2.63,4.4,13.64,8.02,43.13,5.67,57.02-3.38,19.99-29.98,46.89-50.53,33.48-7.98-5.21-12.31-22.76-24.15-14.15-8.21,5.97-23.65,62.05-30.52,75.48-1.77,3.45-4.21,10.51-9.13,8.49-12.19-5-1.43-53.34,1.37-64.26,2.02-7.87,13.85-36.7,13.54-40.54-.09-1.14-.28-2.2-.98-3.14-15.48-5.72-24.5,10.26-30.23,22.1-1.4,2.9.4,5-4.89,3.99l8.02-23.97,2.97,3.98c4.24-9.22,29.41-21.69,31.04-4.94.57,5.83-10.65,30.51-13.03,38.95-5.24,18.59-12.13,43.6-6.01,61.99,8.28-11.65,10.43-27.26,15.52-40.48,3.29-8.55,12.75-34.84,17.61-40.39,3.98-4.55,10.19-6.08,15.97-4.24,12.19,3.86,8.75,27.19,34.71,16.92,34.28-13.56,23.38-59.9,17.18-87.79-17.93,26.19-58.63,81.12-78,24h-2.95c-6.53,8.43-16.64,12.34-27.14,9.09-23.77-7.36-16.63-79.49-24.94-81.1l-36.14,13.9.85,35.77c-7.95,3.29-17.57,8.65-25.78,3.1l-1.88-30.78c-57.07,9.28-152.08,27.04-170.01-47.99l-2.96.02c-48.52,38.7-80.45,5.6-49.08-47.07,5.11-8.59,26.03-27.64,26.77-29.5,2.57-6.41-3.58-15.92-4.72-21.45-5.2,16.39-14.78,30.07-30.97,13.97-17.36-17.27,6.13-19.09,4.83-26.69l-13.64-13.96c4.98-6.1,14.21-23.26,22.87-17.43,1.83,1.23,14.29,14.2,14.64,15.53,1.97,7.56-10.28,13.38-9.59,17.31l11.86,11.27c-3.18-15.44,3.23-24.66,11.16-37.85,3.91-.94,4.73.03,6.4,3.3,3.95,7.78,6.26,25.41,8.46,34.56,4.67,4.38,19.68-22.28,27.1-12.08,6.69,9.19-20.47,25.38-20.52,34.66s17.59,67.17,22.42,77.4c21.86,46.29,101.37,26.36,141.7,23.71,13.59-18.9-20.09-8.08-29.62-7.62-34.28,1.66-118.13,2.88-113.09-49.1,4.45-45.85,60.95-48.25,96.04-53.95,37.62-30.6-27.87-29.76-41.5-38.56-18.15-11.72-5.36-38.67,7.45-49.49,56.51-47.71,86.83,60.93,56.02,102.02-20.49,27.32-57.68,19.21-85.37,30.63-7.09,2.93-11.09,6.23-8.66,14.96,4.09,14.66,102.1,12.66,118.02,9.4-.83-31.6,1.15-63.46.1-95.06-.89-26.68-12.96-54.46,14.89-72.91,1.99.44,12.12,33.45,13.6,38.42,2.15,7.25,4.5,28.58,9.39,32.33.87.67,3.46-.46,4.98,1.18,7.59,8.15,12.25,22.75,7.74,33.59-2.39,5.74-18.09,6.88-.72,13.47l-7.92,8,11.61,7.97-10.64,11.08c-5-.82-7.71-5.07-6.98-10.04l7,6.05,6.97-7.08-13.98-3c-1.29-4.53,5.4-6.45,5.82-9.26.38-2.54-4.18-4.64-3.59-9.26.96-7.5,12.79-9.25,9.71-22.06-.34-1.4-3.21-1.34-3.77-2.95-1.26-3.61-.78-9.46-3.18-12.6-1.72-2.23-5.02.38-6.94-.78-3.06-1.86-17.13-58.48-20.07-67.08-4.65-.87-3.18.39-4.42,2.58-1.46,2.57-8.33,15.76-8.73,17.43-1.87,7.72,4.8,52.47,5.26,64.91.9,24.28-.84,48.81-.08,73.09l16-2.01v-110c2.11.02,6,6.19,6,7v101l36-8.02c-3.74-8.95-1.53-19.26-2.02-28.96-1.28-25.34-5.61-65.53-1.85-89.89.92-5.97,20.49-36.63,25.86-31.12l4.03,107.99c8.24-3.94,15.65-9.17,24.01-12.97,8.45-3.83,16.7-7.02,25.18-10.82,14.74-6.61,41.73-5.79,56.33,1.15,3.26,1.55,1.24,5.04,4.43,4.63l-1.98-32c-16.43-2.01-15.67,9.56-12.02,22.01l-6.05-3.35c-1.28-19.59.35-21.8,19.21-24.51,1.91-40.6,26.25-81.34,53.84-110.16,16.56-17.3,24.39-20.08,38.96-41.04,4.78-6.89,15.64-13.87,21.1-20.91,4.87-1.13,2.15,3.06.94,4.45-6.01,6.91-16.42,13.96-21.96,22.54-.32,1.48,2.1,1.37,2.96.97,4.35-1.97,17.16-13.02,23.2-16.81,6.57-4.13,23.66-12.12,27.92-16.21,1.78-1.7.25-14.58,6.52-20.34,4.6-4.23,26.15-14.34,33.39-18.62-1.83.43-25.84,4.1-18.01-1.99,20.03-1.6,36.04-20.72,56.01-21.99-8.51,10.56-22.46,13.15-33.48,19.6-2.45,1.43-3.86,4-4.52,4.38,11.08-2.63,20.03-8.68,29.94-13.1,2.99-1.33,7.34-.07,9.61-1.37,1.19-.68,4.19-8.37,7.47-9.52,4.25,5.37-2.7,5.11-3.16,8.87-.27,2.22-1.55,10.39,3.11,9.09,9.15-2.38,5.5-9.51,8.03-13.98,1.67-2.96,38.18-12.15,44.55-13.45,18.28-3.72,47.41-9.02,65.58-10.65,3.36-.3,8.32,2.21,8.68,1.95,4.2-3.01-.3-6.28,13.76-9.29,10.18-2.18,47.01-8.11,55.39-6.5,6.58,1.26,9.8,7.59,9.1,13.9l78.75-6.23,5.21-7.73h-46l21.99,3.98-37.98,2.01,2.31-7.68c9.63,1.07,56.81-6.32,60.8-.4l.95,8.01,13.94.08-2.03-28.01c-22.85,6.01-57.15,17.79-80.51,13.54-6.21-1.13-12.13-7.41-16.45-7.41-5.4,0-18.26,8.59-26.19,9.7-13.34,1.88-23.36-3.92-29.84-3.76-1.73.04-24.92,12.48-31.42,14.5-34.98,10.87-66.73,6.84-95.55-16.57-.16,10.75,2.09,22.04-6.99,30.03-16.17,14.24-40.4-1.25-47.01,2.91-15.83,21.45-40.76,34.32-60.97,51.12-18.73,15.57-42.18,35.71-59.04,52.96-8.64,8.84-17.93,23.82-26.33,31.67-2.62,2.45-2.53,4.42-7.67,3.31l18.96-26.02c20.43-20.98,41.59-41.14,64.09-59.91,22.43-18.72,52.88-34.47,67.24-59.74,16.42-2.54,30.52,12.46,45.79.78,15.48-11.84,3.14-31.9,5.92-35.08,12.78,4.83,22.6,14.66,35.47,19.51,24.89,9.39,44.89,7.54,69.56-1.48,6.66-2.43,24.36-13.34,28.31-13.68,2.39-.2,10.01,6.5,21.62,5.63,10.8-.8,31.91-12.07,36.09-11.96,3.87.1,11.88,10.42,25.83,10.02,16.66-.47,60.05-15.65,70.06-14.15,8.13,1.22,6.67,25.43,7.03,32.1l14-.02c-4.06-33.83-1.4-68.81-1.91-103.07-.31-20.67,1.3-49.23,0-68-.57-8.21-4.96-14.57-4.09-22.91-2.91-3.43-13.83,14.81-14.16,18.99-.44,5.46,2.13,10.53,2.26,15.92.92,38.97-.85,78.12-.09,117.09-2.06,0-4.01-1.41-6.14-.86-17.27,4.44-34.95,11.28-52.89,12.83-5.16.45-25.03,1.8-26.69-3.25l1.73-186.71,16.01,6.98c-1.74-6.18-14.88-42.85-19.02-42.95-3.86,6.23-18.44,9.23-18.86,16.84-.22,4.01,3.6,11.9,3.93,18.05,2.83,52.9-1.39,108.78-.15,162.15.17,7.46,5.19,17.15.22,24.06-5.72,7.95-30.9,15.04-40.26,11.97-4.98-1.63-6.58-7.62-12.38-6.84-6.27.85-28.61,15.7-39.55,18.67-42.58,11.57-71.58-12.12-102.89-37-29.26-23.25-65.06-54.16-92.11-79.89-5.4-5.13-17.9-14.46-14.01-22.07,1.37-2.68,33-25.64,38.43-29.61,49-35.88,98.93-66.2,160.22-75.78,18.84-2.95,35.77-4.46,54.25,1.57,2.09,9.73-5.59,16.72-11.83,22.86-.32,1.48,2.09,1.36,2.96.97,1.04-.46,15.85-13.5,17.06-14.95,3.51-4.21,8.71-13.44,4.01-18.08s-44.05-3.49-53.03-2.93c-67.65,4.16-134.18,30.07-188.81,69.19-21.42,15.33-58.1,40.17-50.34,69.94,14.34,10.09,26.05,23.38,39.19,34.8,20.17,17.53,79.68,58.42,87.88,80.1,9.66,25.54-16.46,12.38-30.82,11.85,6.96-32.44-23.67-60.25-41.57-22.36-12.73,26.94,1.36,28.17,25.47,26.47.67,4.86-.7,7.89-3.1,11.9-7.41,12.38-60.78,48.93-75.85,62.15-27.65,24.25-44.26,47.82-68.03,73.97-5.57,6.13-13.57,16.35-22.52,14.65-6.8-2.39-5.44-32.15-3-38.16,1.31-3.22,7.58-8.91,10.47-11.53,22.64-20.59,99.18-72.5,107.41-96.59,4.74-13.88,3.61-43.87-.8-57.99-2.3-7.36-9.42-24.09-16.71-11.5-8.86,15.32,14.38,55.38,3.85,75.85-4.68,9.1-49.82,44.93-60.8,53.2-4.36,3.29-38.59,28.29-40.94,26.04-.02-3.11,1.88-5.87,2.01-8.97,2.52-60.35-1.29-119.68-4.1-179.93-.82-17.6.78-35.47.07-53.07-10.94,3.29-16.35,13.86-16.15,24.99.98,53.78,6.46,108.13,8.24,161.92.33,9.97,1.65,54.24-3.05,59.13-4.1,4.24-8.32.55-12.02-2.07-19.58-13.87-15.61-48.92-19.03-69.98-3.64.76-3.72,3.93-4.05,6.93-1.78,15.85,3.01,39.45,7.05,55.1,4.12,15.94,6.71,30.39,27.03,29.99-1.51,14.27-4.59,39.22-1.96,52.94,1.11,5.77,8.02,7.65,8.04,16.02.05,18.57-23.43,57.54-41.49,64.61-47.55,18.61-74.55-41.35-68.47-80.47.61-3.94,2.74-9.79,7.87-9.11-20.26,81.49,66.15,131.34,93.99,34l-12.9,20.06c-46.36,42.18-73.48,2.77-73.08-46.08,22.32-7.33,27.7,31.04,35.03,33.99,3.41,1.37,4-3.26,4.43-5.48,1.66-8.73-.97-17.91,2.56-26.49,3.65-2.62,8.14,8.62,10.99,9.98.58.26,2.99-4.7,2.99-4.99v-32c0-7.13-4.3-27.72-7.59-34.41-5.64-11.44-15.29-16.02-24.22-23.96,4.22-11.73,13.43-13.64,13.07-29.32-.79-34.85-24.76-82.71-19.13-120.18s30.65,6.71,33.95,21.73c-11.35,2.88-11.55,13.5-12.22,24.12-.62,9.81,1.98,30.69,8.17,9.02,10.95-.35-3.28,14.46-6.79,13.9-10.56-1.7-3.92-36.36-.79-44.43,1.13-2.9,5.53-4.85,5.25-8.09-.31-3.6-13.6-24.03-16.73-25.36-3.63-1.54-3,2.24-3.57,4.33-10.73,39.32,23.69,104.43,15.65,135.71-1.3,5.07-12.19,18.33-11.05,19.91,19.74,5.5,28.25,30.42,29.96,49.06.67,7.28,1.1,42.44-1,46.93-.75,1.6-2.69,2.97-4.21,3.93l-10.74-7.9c.3,10.95,1.36,25.64-10.96,30-8.85-9.35-11.11-33.93-26.05-36.04-3.29-.46-3.28-.15-2.9,2.89,4.92,39.25,26.08,76.39,63.98,36.23,3.93-4.16,17.9-27.89,17.94-32.14.03-3.38-5.24-5.28-6.14-11.83-1.87-13.7.47-33.25,2.11-47.09-24.17-1.47-28.73-40.26-31.45-59.57-1.86-13.26-5.45-27.97,3.43-39.59l9.72,1.45c.28,17.02.45,34.84,5.74,51.24,2.41,7.47,6.87,19.14,16.54,18.43-1.68-7.65,1.81-15.92,1.81-22.78,0-40.76-6.68-85.17-7.88-126.13-.62-21.15-2.68-58.61,0-78.17,1.16-8.46,10.71-18.96,19.19-20.94l4.9,3.02v31c23.66-4.26,51.65-53.18,13.03-54.13-27.16-.67-58.05,28.73-69.02,52.11,3.23,4.28,30.23.12,29.98,10.01-9.99-1.53-20.63-1.92-30.39-4.66-2.26-.64-6.8-.39-5.27-3.93,5.71-28.28,72.15-82.88,94.56-49.3,14.85,22.25-10.5,45.6-29.96,53.83l-.94,26.07c19.83-.48,42.52-2.55,57.01-17.93,19.3,25.46,50.14,24.31,79,19.9l-19.27-17.59c-18.7,7.44-51.47-1.92-54.75-24.39-11.4,8.69-23.75,15.16-37.97,17.99,1.73-11.03,13.03-15.85,18.35-26.63,8.49-17.21,11.13-52.33-12.3-58.42-42.31-11-93.79,38.47-112.44,72.67-21.12-.55-47.32-13.84-53.65-35.6-3.35-2.48-12.17,13.86-15.91,17.06-26.08,22.33-51.07-10.92-65.69-30.1,17.74-16.26,51.13-37.36,9.53-49.87-19.17-5.77-33.84-1.21-51.87,5.94-8.44,3.35-27.93,10.05-23.83,21.71.65,1.85,20.39,8.43,25.13,10.91,2.72,1.42,15.18,8.48,14.76,11.29-.48,3.22-30.9,33.46-36.55,41.59-24.16,34.77-32.17,74.3-29.51,116.42.44,7.02,3.56,15.11,3.97,22.06.24,3.97-.4,3.12-3.98,2.96-19.33-65.46,6.69-139.5,59.95-181.02.92-2.36-8.67-8.45-10.57-9.39-12.65-6.22-47.59-8.72-21.23-30.4,17.4-14.31,51.82-24.16,73.45-17.82,43.65,12.8,24.02,38.61-3.62,55.61,15.7,22.83,44.9,49.34,65.58,15.62,7.84-12.78,6.78-16.67,6.4-31.59-.11-4.24-5.57-12.49,2-11.02,1.19,26.59,4.11,50.57,30.01,64.01v-55c0-5.22-3.53-22.91-4.93-29.07-.79-3.48-2.73-13.27-5.02-15.01l-20.04,9.06c3.62-7.53,21.33-20.23,26.62-9.46,3.21,6.52,6.58,33.83,7.36,42.51,1.76,19.52-.34,39.17.3,58.7l18.32,4.38c15.18-14.67,7.72-29.83,7.32-47.01-.73-31.87-.64-68.96,8.65-99.51,3.79-12.46,11.39-23.31,15.41-35.57l-61.71,10.26-9.79,40.84,7.51,6.88c-25.97,3.54.05-44.13-2-45.98l-51.51,8.45c-6.82,17.81,1.23,37.11-.49,55.52-4,.55-3.29.38-4.51-2.47-1.69-3.96-3.39-28.05-3.63-34.48-.2-5.17,4.65-17.51-.83-17.06-52.68,11.03-105.26,23.2-156.55,39.49-39.37,12.51-56.02,21.31-91.12,40.88-22.54,12.56-46.55,23.48-67.33,38.67-.31,1.53,1.86,1.24,2.94.95,37.05-9.84,74.55-18.4,111.48-28.53,15.59-4.28,64.69-15.35,72.49-27.51,6.72-10.49-2.02-19.62,11.65-28.35,9.6-6.13,17.43-10.25,24.72.24,7.44-2.64,19.46-13.41,27.17-11.39,1.98.52,3.69,3.46,6.23,3.27,6.21-.46,15.54-13.87,23.31-13.67,4.93,5.48-18.73,30.81-24.08,32.9-6.11,2.39-12.3.13-18.45,1.55-3.22.74-20,6.45-22.22,7.78-5.28,3.13-13.53,20.38-19.3,26.7-13.58,14.86-24.96,13.93-41.94,21.06,37.13-.83,28.17,37.71,15.07,60.07-27.96,47.73-100.05,49.98-149.08,55.94l.03-12c3.89-.67.93,4.62,2.09,5.84,2.78,2.91,57.83-6.58,66.25-8.48,40.03-9.04,86.1-28.65,87.08-76.91.89-43.46-61.61-3.17-45.5,12.6,7.92,7.76,47.92,8.53,16.69,28.58-25.69,16.5-87.79,31.57-118.59,35.42-2.72.34-6.82,3.29-6.04-2.04l97.52-26.49c7.27-2.74,27.67-10.5,31.51-16.5,2.2-3.43-.76-5.33-3.2-6.9-8.37-5.37-26.6-3.88-26-18.09.64-15.16,19.93-25.92,32.15-31.05ZM2227.22,173.65c-5.04.08-51.39-8.77-53.59-10.39-4.75-3.52,1.21-20.67-15.39-21.67-7.7-.46,4.18,13.21-1.46,17.61l-43.56,10.43,39.85-12.11-3.14-17.94-98.71-15.92c1.26,17.73,2.03,32.55-20.18,29.12l-3.11-7.22c-28.45-4.69-59.3-5.47-87.47-10.15-4.63-.77-13.21-1.04-15.25-5.73l100.99,12.06,3.02-6.07c-23.08-1.62-49.76-3.88-72.45-8.62-3.42-.71-8.95-.1-7.54-5.38l73.06,10.01,12.9-2.01c2.71,3.8-12.35,31.93,11.75,14.73l.25-20.71-103.02-11.98c-2.82,1.93,1.87,9.21-3.94,7.95-2.24-1.21-2.99-5.77-5.02-6.99-3.29-1.97-50.8-4.81-58.92-5.08-12.32-.41-24.76.45-37.07.1.19,4.13,6.71.66,10.04,2.93,2.71,1.86,2,4.22,1.96,7.04-67.13,12.75-123.22,54.66-184.66,82.36-10.25,4.62-76.9,33.04-82.11,31.52-6.56-1.92-1.8-33.75-.69-40.31,1.51-8.89,10.07-40.48,17.39-44.61,1.99-1.12,3.87-1.12,6.05-.94l-1.98,49.99,4.88-.1,171.1-76.92c-34.73-17.65-72.89-9.61-110-6.98-1.95,1.81,4.01,13.01,4.01,14.99v34c0,.35-2.7,3.15-4,3v-35c0-3.07-5.04-19.75-10.97-17.19-23.93,6.11-51.19-4.61-68.32,16.86-11.31,14.17-21.36,48.24-22.78,66.26-1.23,15.6,2.65,37.86.06,52.06-.63,3.43-2.14,5.62-5.98,5,.52-45.46-1.91-97.93,31.98-133-24.64-4.39-35.18,6.98-43.54,28.46-11.66,29.94-15.74,93.54-9.9,125.01.28,1.51.96,4.98,2.44,5.53,23.83-23.73,64.96-60.84,101.48-47.46,23.4,8.57,24.92,36.31,18.13,57.08-2.67,8.17-8.27,12.65-10.6,20.38l22.76-10.14c6.34,20.43,29.49,28.7,49.22,25.16-7.67-10.72-34.25-24.47-33.87-37.68.81-28.48,39.64-56.02,61.25-70.96,53.44-36.95,122.27-62.96,187.55-66.45,13.07-.7,60.94-4.17,59.07,14.88-1.29,13.21-36.79,41.53-49.03,45.18-2.53.75-4.02-.49-2.94-2.94,2.16-4.94,28.91-30.91,25.98-35-75.31-9.17-145.24,30.5-203.78,73.19-5.21,3.8-37.32,27.41-38.03,30.14-.76,2.9.64,4.98,2.69,6.78l44.04,35.78c24.89-6.24,49.5-13.57,72.22-25.81l6.87-.12c-.18,7.47-1.99,16.25,7.45,17.63,15.31,2.23,24.81-24.19,33.55-25.67,3.74-.63,2.6.48,3.5,2.56,2.46,5.68.42,16.03,8.54,17.53,20.44,3.77,25.41-21.86,36.1-24.04,8.24-1.68,7.48,13.77,12.84,17.03,4.56,2.77,21.63,2.48,23.67-4.45,3.5-11.9-10.29-42.68-13.61-55.41l14.97-25.12c2.28.03,24.57,32.61,25.03,36.96.58,5.45-5.11,2.29-8.05,3.01,6.69,24.57,9.9,54.46-14.11,70.86-18.06,12.34-31.59,5.97-46.88-6.84-12.23,21.01-34.68,28.26-51.99,8-13.08,16.84-38.16,23.3-48.04-.07l-36.96,16.06c42.11,37.07,76.69,83.94,139.37,62.35,7.12-2.45,33.93-18.11,38.65-15.51,2.78,1.53,3.15,6.62,5.38,7.16,10.46,2.56,34.99-2.34,36.69-14.94,5.43-40.26-4.33-92.59-.02-134.18-5.03-21.71,1.62-44.35-5.89-65.61,5.67-4.69,22.67-20.91,29.85-16.39,7.66,14.69,17.91,33.74,19.86,50.22,1.02,8.6-12.89-3.77-15.9-3.14v102c7.01-3.82,12.7,3.98,20,4v-81c0-1.79-4.27-5.41-2.94-9.05,1.12-3.06,14.26-21.03,18.84-17.86,6.18,16.47,17.02,31.88,18.09,49.9l-11.97-3.99,2.07,85.91,27.89,6.09.03-16.01-24.03-2,.03-5.99,23.99,3.99v-77c0-.65-1.82-1.87-1.2-4.98.82-4.12,12.53-20.68,16.53-21.74l3.59-.26c16.29,27.63,3.67,60.62,6.98,91.08.33,3,.2,4.99,3.08,6.86,10.87-6.62,25.17-9.16,35.68-16.28,19.21-13,12.98-19.44,3.67-37.01-3.63-6.85-21.17-29.39-19.39-34.54s25.16-29.12,29.85-27.97c7.41,9.96,21.66,25.19,25.15,36.92,1.71,5.76-15.01,2.76-17.93.94,5.81,18.04,14.59,30.66,11.8,50.83-3.28,23.72-47.47,48.07-69.73,51.26l-.17,36.59,3.98,2.35c14.73-1.12,66.1,19.89,75.61,10.5,1.63-2.31,2.65-5.23,2.15-8.08-2.19-12.4-35.17-35.28-44.69-45.35l-26.96,31.9c10.55,2.9,22.25-17.43,28.59-15.78,1.8.47,26.1,20.15,29.21,22.98,2.22,2.02,5.02,2.95,4.18,6.8-2.25,1.93-39.43-7.46-41.12-9.87-4.42-8.83,9.07-8.39,9.12-16.11-2.55-2.47-13.85,11.79-17.45,13.53-5.88,2.85-12.23,2.69-18.54,2.45-4.72-4.45,27.43-37.76,32.99-40.07,3.22,0,39.1,32.15,42.94,37.14,11.67,15.18,7.02,27.71-12.97,27.06s-44.97-14.67-66.97-12.12v34c43.35,2.43,86.96,1.76,130.01,7.98-3.63-7.31.91-12.08,8.71-11.35,16.18,1.52,40.57,7.24,55.11,14.53,3.43,1.72,5.18,5.95,10.13,7.87,14.76,5.73,43.29,8.5,60.88,13.12,94.49,24.81,185.62,62.45,254.18,133.82,8.29,8.63,20.51,30.18,32.85,31.18,6.27.51,27.32-35.01,32.49-41.79,13.19-17.3,39.47-51.86,64.11-48.99,13.69,1.59,39.17,28.26,49.67,20.76,1.77-1.26,3.54-16.44,2.97-19.18-1.05-5-19.1-30.51-23.45-36.61-26.52-37.18-58.27-72.55-93.64-101.34-.14,3.39-.26,6.83.87,10.11.34.97,8.62,13.23,9.33,13.66.58.35,3.9-2.04,6.35-1.48,6.45,1.48,31.31,25.47,36.26,31.88,3.18,4.12,9.51,12.51,8.18,17.82-11.07-13.24-18.28-27.02-33.1-36.9-11.09-7.4-25.95-8.15-29.45-24.55-.92-4.31.29-9.17-.87-13.13-4.86-16.67-133.4-94.12-155.84-106.16-37.84-20.33-77.08-39.12-117.75-53.22l31.83,19.14,30.16,24.87c-13.62,14.46-36.01,15.96-54,22-1.29,1.81,8.15,15.83,10.02,16.99,5.67,3.52,32.8-6.84,41.52-8.47,14.47-2.71,29.75-3.8,44.46-4.55,2.09-2.06-6.72-22.22-1-21.95,16.02,16.41,47.82,24.98,62.84,41.12,1.79,1.92,7.68,11.46,6.15,12.83l-13.98,1.99c16.81,6.7,31.1,19.33,46.9,28.16,2.29,1.28,4.97.1,6.89,1.03,5.68,2.77,23.98,22.24,27.87,28.15,14.22,21.62,21.39,60.56-7.66,73.69-26.28,11.88-40.18-13.6-36.04-37.01-26.82,26.24,6.85,72.76,42.03,57.02,24.25-10.85,32.56-41.96,23.72-65.76-7.45-20.06-29.44-48.32-44.74-63.26-2.18-2.13-25.56-19.62-22.99-21.99,4.13-.46,7.08,2.64,10.03,4.95,23.99,18.72,64.63,65.45,67.75,96.25,4.11,40.58-46.26,80.99-79.77,43.77-11.75-13.05-16.05-41.33-2.05-54.02,13.94-12.63,8.36,22.53,15.97,32.1,12.79,16.11,38.51-1.5,40.14-21.98,3.05-38.48-22.39-56.77-51.03-75.13-20.13-12.91-42.89-22.34-62.05-35.95l4.74,16.73c-11.29,15.76-25.51,7.36-38.77-.71-8.03.3,7.99,7.6,7.03,8.98-6.94,1.37-14.64-4.18-21.97-6.03-34.2-8.59-72.89-10.93-108.03-14.99-4.47-6.33,12.69-27.32,16-23.99l-9.98,17.98,109.98,15.99-45.51-23.61c-7.08-1.73-19.13,5.87-25.61,5.5-5.76-.33-21.56-20.24-17.99-25.9,4.13-6.53,51.1-11.65,49.04-20.84-19.38-23.04-45.65-37.46-73.91-47.16l5.97-3.95-15.98-3.03c6.8,8.3,21.74,17.42,21,29l-59.01-31.97c20.59,16.01,46.26,23.36,63.99,42.99-8.41,6.23-50.53-6.25-53.98-.98l.88,6.08,46.19,13.08,10.92-9.17c-5.35,19.89-20.08,13.34-35.56,8.54-11.16-3.45-21.96-8.39-30.42-16.56,3.65,22.67,28.57,26.11,43.71,38.95l-11.8,23c-39.39-8.53-51.25-51.29-71.76-80.69,12-12.74,34.76-4.38,49.83-.26s29.53,8.82,41.98,17c3.08-3.3-10-11.34-12.15-12.83-21.06-14.59-47.75-24.84-69.82-38.18l8.76,1.18,2.34-4.3,63.85,32.16c4.39-3.31-.25-3.42-1.53-4.61-4.17-3.88-9.17-9.1-13.42-12.45-22.25-17.58-52.91-21.32-79.23-31.05l-2.98,3.82-3.78.23c-.28-1.59-.74-4.02-1.9-5.03-3.81-3.31-42.3-14.34-44.14-12.93,11.78,30.55,15.27,63.27,14.01,95.98,14.58-1.88,31.63-5.71,43.98,5.01-15.96-1.05-27.8-5.34-43.79,1.18l-.19,11.8c13.68-6.67,33.83-14.45,44,.93-.12,10.41-39.65,45.32-46,39.08,1.48-17.1-1.16-34.23-1.99-51.03-.96-19.5.55-47.13-2.5-65.5-.85-5.16-11.59-36.73-14.54-39.46-3.45-3.2-12.27-3.72-16.98-4,9.58,18.6,12.97,42.36,15.72,63.26,4.89,37.17,6.25,75.3,8.3,112.71,9-2.04,18.25-2.91,27.06-5.92,15.66-5.34,56.74-35.38,52.09-54.07-3.5-14.07-23.24-32.68-33.02-43.27-.99-5.56,18.97-14.15,23.86-12.74,1.42-14.88-12.18-22.38-18.01-33.97,10.2,2.74,15.93,12.04,20.12,20.87,1.57,3.31,1.04,9.85,3.09,11.32,4.92,3.53,18.18,2.69,22.77-2.21l-3.35,8.1c-15.99-3.67-27.91-.23-42.62,5.92-2.83,3.91,12.42,13.1,14.92,16.05,4.73,5.59,19.61,31.45,18.2,37.96-4.86,22.54-61.96,63.95-87.82,55.64l-3.31-2.68v-29l-12.02,5.42,4.5,34.11c46.3,18.6,74.52-12.41,100.79-45.38,2.14-.37,28.26,21.97,35.66,24.85,9.97,3.87,31.04,6.92,42.34,8.72,37.33,5.94,75.46,6.84,112.75,13.25,5.13,2.72-3.88,5.89-5.49,6.58-20.4,8.62-45.31,11.82-66.52,18.46-.85-4.34,1.94-4.65,4.86-6.12,11.55-5.8,30.5-8.12,43.53-12.49,2.1-.7,6.05-.44,5.58-3.36l-118.12-13.17c-5.59,4-.46,37.7,3.11,45.17,3.36,7.02,16.45,21.56,25.03,19.97v-41c0-2.49,10.24-16.97,14.95-17.01,3.75.86,15.71,34.82,19.11,40.54,5.75,9.69,30.86,20.75,35.95,34.45,40.38,6.65,122.78-5.28,68.68-58.8-26.92,7.11-53.35,17.12-80.67,22.83-1.85.39-25,6-18.02-.99,28.36-6.08,55.84-16,83.88-23.14,3.84-.98,8.41-.08,10.83-.79s1.15-9.91,7.28-8.09c-.85,10.04,9.65,16.07,14.39,24.61,10.93,19.71,6.42,31.6-13.02,41.74-33.16,17.3-83.7,9.16-119.35,3.64l1.15,14.24c29.34,9.57,58.78,12.56,89.33,7.26,28.32-4.91,65.81-23.04,58.62-57.61-.44-2.1-10.46-27.39-11.3-28.68-2.91-4.44-10.72-5.11-13.77-10.19-.57-8.5,19.34,6.76,21.06,12.95,2.53,9.11,3.19,9.31,6.39,17.57,12.2,31.46-10.32,56-38.94,66.04-4.69,1.65-26.53,5.28-26.51,7.45l38.99,36.97,18.96,24.02c-3.55.74-4.85-1.9-7.04-3.93-10.08-9.36-19.26-23.32-29.15-32.85-3.21-3.09-26.15-23.41-27.83-24.17-6.01-2.73-15.36-.25-21.96-1.02,18.3,16.72,39.03,30.84,57.05,47.93,3.67,3.48,30.39,28.49,26.94,32.04-7.73-.87-11.16-10.04-15.94-15.04-11.98-12.55-61.2-58.43-74.61-63.39s-36.93-2.21-51.42-11.56c-.38,7.59-4.56,10.33-12.02,10l6.03-8.93-.05-55.07,10.03-1.01-15.02-32.94-6.87,13.09-3.99,70c-4.58,3.22-60.7-9.61-66.08-14.18s-5.31-33.77-8.05-42.94l23.99,5.98c-2.03-2.67-1.16-6.42-1.98-8.54-1.1-2.83-22.75-6.18-27.53-8.96-3.36-1.96-4.45-6.3-5.87-6.6-8.31-1.75-44.29,12.9-55.84,14.03-10.22,1-13.64-2.18-10.72-11.9h5.94s-1.99,5.97-1.99,5.97c4.92,3.8,45.88-12.06,57.01-12.14s24.47,11.55,36.97,12.15l1.59-37.6-33.55-22.38c-17.73,31.71-44.39,53.93-82.88,49.83-5.6-.6-10.93-4.98-17.16-3.83,6.52,31.86,7.49,55.28-30.94,58.06-23.16,1.67-49.27-4.85-73.06-2.09-.47-2.83,3.54-2.9,5.55-3.4,31.19-7.77,79.09,7.81,72.26-41.4-3.08-22.23-27.55-25.91-39.25-42.15-.95-6.47,31.16-17.27,35.21-24.34-1.83-25.49-8.86-52.25-9.87-77.61-.32-8.07-1.22-35.17,11.08-35.17,7.51,0,28.61,43.91,24.99,48.08l-9.97-1.98c.5,12.73,3.5,26.27,4.08,38.89.1,2.08.93,21.29-4.08,15.11l-6.11-56.96c1.23-9.17,12.19.96,10.06-6.01l-16-31.03c-2.86-2.06-8.21,5.18-9.07,7.88-1.75,5.5.46,23.84,1.11,31.1,1.93,21.65,7.15,43.2,8,65.01,2.28,2.45,26.77-13.63,29.66-17.33.56-7.16.62-14.47.31-21.65-.72-17.04-3.27-45.21-6.14-61.86-1.02-5.89-7.62-29.43-10.22-33.78-2.31-3.86-29.15-11.53-32.64-11.32-3.82.22-2.12,2.72-1.03,4.96,2.56,5.28,13.18,17.38,2.41,15.57-3.96-.66-4.12-2.49-4.35-2.59,1.78-.03,5.55.91,5.99-.99l-11.97-18.03-48.01-8.97c-.19,2.6,1.07,6.85,3.52,7.96,6.11,2.75,34.73,4.36,38.46,8.06,1.06,8.27-5.67,1.24-9.48.46-7.03-1.44-18.89-4.1-25.5-4.52-4.33-.28-3.72,1.8-1.03,3.06,12.18,5.7,32.95,6.34,48.02,12.98ZM1830.22,107.65c-19.01-3-45.16,2.22-65,0,.89,3.63,8.04,1.64,12.07,2.93s13.12,5.38,15.93,9.04l-183.52,81.58-6.29.27c-6.25-15.47,1.58-32.01-1.17-47.81-13.97,20.94-16.04,47.49-15.98,72.02,28.02-8.63,55.63-19.6,82.33-31.68,57.43-25.98,110.64-65.17,172.65-78.36.97-5.26-.87-3.09-2.87-4.15-1.21-.64-7.69-3.77-8.13-3.84ZM1389.21,165.66l-17.05,10.08-5.84-6c-7.77,1.7-22.78,13.64-29.66,11.64-6.26-1.82-2.71-9.1-14.82-2.1-13.08,7.56-6.98,20.15-16.12,31.87-7.57,9.71-33.66,16.27-46.07,19.93-52.53,15.52-106.99,24.74-159.46,40.57l-2.95-2.97c2.16-4.99,50.18-32.66,58.64-37.37,10.18-5.68,22.74-10.07,32.05-15.95,2.02-1.28,6.17-4.13.34-3.67-19.63,9.29-40.23,16.78-59.77,26.24-28.42,13.77-55.63,26.29-73.28,53.7l236.52-58.46c7.81-2.34,13.15-7.69,18.51-13.49,4.62-5.01,15.3-23.77,17.47-25.53,1.61-1.31,14.19-3.65,18.1-4.9,3.45-1.1,6.55-4.73,8.87-5.21,4.22-.88,9.05,3.04,15.1,1.25,1.64-.48,21.49-17.56,19.43-19.62ZM2221.2,239.65c-2.66-13.11-13.71-21.61-20.98-31.96-4.75,7-25.26,19.63-22.03,27.86,6.12,15.58,32.57,36.81,26.61,56.7-3.79,12.65-41.53,26.44-53.73,30.41l.16,14.99c20.49-5.98,60.64-25.41,65.1-47.87,3.7-18.6-9-36.26-15.12-53.08.73-5.28,17.35.9,19.99,2.96ZM2099.22,247.63l-14.02-35.98c-1.57-1.19-11.33,12.65-11.58,15.31-.23,2.48,3.37,8.09,3.71,13.58,2.75,43.67-1.14,91.33-2.09,135.1,30.67-33.16,8.94-88.74,13.99-129.99l9.99,1.97ZM1987.19,217.66l-4.11,1.22-7.93,15.92c3.53,12.01,18.08,48.64,13.08,58.87s-25.53,10.27-34.07,2.05c-2.68-2.58-7.7-15.09-10.91-12.06-7.16,23.14-43.22,38.8-47.02,4-8.6,19.65-40.3,40.77-45.99,8.01-18.24,13.62-42.03,15.29-61.91,22.09-2.65.91-5.43,1.02-5.1,4.88l16.81,11.05,41.88-17.87c4.85,1.44,4.47,16.68,20.26,15.98,13.59-.61,19.48-16.2,28.06-16.35,3.88-.07,5.36,8.19,11.5,10.69,18.37,7.5,28.36-6.77,36.52-20.49,14.55,12.14,27.57,22.42,46.39,10.44,23.04-14.66,15.25-50.26,10.59-72.43l7.98,1.98-16.03-27.97ZM2419.21,247.67c-20.44-3.45-40.88-13.24-62.01-9,17.88,27.03,28.08,61.83,60.82,74.84l11-14.87c0-2.92-26.79-15.49-31.6-20.18-7.41-7.22-16.58-23.51-2.29-27.91l24.09-2.88ZM2343.22,285.67c-31.28-7.08-42.58,1.72-37.99,33.97,16.36-5.34,27.63-20.92,37.99-33.97ZM2625.21,325.64c.53-4.09-3.35-6.67-6.12-8.86-15.19-12.04-35.97-20.16-50.9-33.11l-.96,17.99-58.01,8.01,71.26,33.93c4.58.83,8.7-1,10.48-5.36-.1-8.62-9.18-11.28-3.6-20.51,8.69-2.14,15.3,8.5,21.34,9.62,5.14.95,11.01-2.8,16.52-1.71ZM2281.21,291.66l-65.98,36.98c12.11,13.28,17.88,6.62,31.33-.65,4.42-2.39,33.23-19.02,34.24-20.74,1.8-3.08-.34-11.48.41-15.59ZM2047.22,383.65h35c7.93-6.07,34.99-6.63,41.09-10.91,5.22-3.66-.84-19.08-.26-24.93l-27.79-4.14c-2.12,12.89-6.7,38.16-23.83,35.78-3.19-18.38,1.91-39.14-.47-58.54l-19.71-9.27-4.02,72ZM2221.23,413.64c14.59-.54,40.86,2.91,48.41-12.57,6.87-14.07-.2-53.26-2.35-70.49-1.59-12.75-13.12-3.01-14.09,2.05-4.94,25.73,17.65,67.31-19.46,76.54-4.91,1.22-14.17-2.26-12.51,4.47ZM1611.22,550.65v29c3.04.63,4.7-.64,7.14-1.86,8.86-4.43,30.88-36.44,39.83-46.17,31.04-33.71,66.77-56.33,99.97-86.03,2.66-2.38,14.22-13.09,15.04-14.97,2.3-5.28-9.43-.76-10.97-.77-37.11-.27-9.8-57.19,13.82-56.08,8.37.39,19.94,9.85,22.25,17.79,4.73,16.27-5.16,29.62,24.94,25.06.96-14.1-23.09-32.32-33.08-40.92-4.72-4.06-31.8-26.32-34.89-27.25-6.79-2.04-15.73,2.66-23.09,3.16-25.67,1.76-42.84-2.86-61.97-20.04-16.56,13.39-36.44,15.14-57,14.08,4.21,52.61,5.94,106.21,4.12,159.11-.13,3.85-1.65,7.16-2.11,10.88,2.29,2.19,24.35-14.64,27.79-17.19,11.3-8.42,56.14-43.13,61.86-52.13,1.8-2.84,3.62-5.74,3.73-9.24.57-17.67-10.23-43.34-9.29-58.32.4-6.4,7.32-14.06,11.97-18.19,11.24-4.68,18.78,24.54,19.73,32.3,2.36,19.23,3.36,45.16-8.74,60.84-25.25,32.71-75.4,61.16-106.04,89.96-1.43,1.52-4.66,5.35-5.01,6.99ZM2249.2,355.65l-2.97-21.98c-2.24,2.65-11.96,4.27-10.93,8.86l13.9,13.13ZM2427.23,339.67l-12-2.03c-2.86,21.5-5.23,45.41,6.32,64.68,3.64,6.08,30.08,32.85,35.66,27.33,3.71-15.75-11.55-17.77-20.08-26.92-14.11-15.13-17.37-44.06-9.9-63.06ZM853.22,547.63c9.83-50.58,28.86-96.91,57.17-139.81l32.81-46.17c-15.29,14.91-35.13,32.51-46.37,50.61-9.89,15.94-23.44,43.26-31.33,60.67-12.55,27.71-19.53,55.96-26.58,85.42-8.33,12.11-20.68,17.33-33.77,22.69l-5.93,24.6c17.96,1.59,24.67-16.72,38.95-21.99,4.86.99.45,23.99,15.57,30.51,17.12,7.39,24.83-18.96,27.74-31.24,6.6-27.88,6.46-44.31-28.27-35.29ZM2211.22,377.63c-4.57-6.09-16.73-16.82-23.99-8.97l23.99,8.97ZM2412.62,396.26c-1.52-1.37-18.58-9.45-19.39-8.6,3.08,8.5.16,30.62,6.82,36.16,5.84,4.86,47.1,10.86,57.17,13.81-7.6-6.12-16.03-8.46-24.02-14.96-10.14-8.24-14.72-21.16-20.58-26.41ZM2525.22,427.63c2.23-1.61-33.83-35.82-41.99-31.97l.19,25.79,41.8,6.18ZM2019.2,415.66l-15.98,3.97c3.86-1.38,17.41,3.82,15.98-3.97ZM1905.22,439.65l-1.01-1.98c-7.31-2.06-9.58,2.74-12.99,3.98-1.98.72-6.6,3.28-6.98,3.27-2.55-.07-7.72-7.9-11.02.71l9.99,2c-8.77-.57-16.18,5.52-23.42,7.6-1.86.54-7.09,1.93-6.55-1.55l13.98-6-28.57,4.4c-6.15,2.54-2.66,14.13-16.89,17.11-6.87,1.44-9.64,2-8.58-5.47-1.75-1.71-37.5,11.1-40.72,13.72-2.87,2.34.8,10.18-5.21,13.22-9.88,4.99-10.26-3.03-10.92-2.97-9.84.89-13.25,11.81-17.08,18.99-.32,1.51,1.93,1.28,2.95.96,7.38-2.33,19.48-10.65,27.69-14.32,79.98-35.74,166.67-54.34,253.34-65.67l-4.52-5.57c-37.66,7.23-75.94,9.62-113.47,17.59ZM2345.22,433.67c-19.86-7.49-40.74-11.04-62.01-12.01l1.35,6.02c19.63,1.51,38.69,6.27,58.14,9.53,3.86.65,2.41-.06,2.52-3.54ZM807.24,575.65c34.04-10.21,28.79-32.6,36.55-60.43,2.52-9.04,6.38-19.36,9.89-28.11,8.29-20.67,20.37-39.27,29.52-59.46-16.82,21.99-39.27,51.66-49.46,77.58-3.78,9.6.97,10.08.48,16.65-.3,3.91-10.32,26.12-14.99,21.75,4.54-7.7,8.63-11.76,9.78-21.22.26-2.16,1.75-7.24-1.75-6.74l-20.01,59.98ZM2088.81,428.24c-129.42,6.42-292.28,41.09-399.03,116.97-125.65,89.3-128.97,212.75-3.19,304.07,222.81,161.77,685.44,163.26,914.46,13.2,113.63-74.45,158.82-187.37,47.22-290.88-132.08-122.52-386.35-151.94-559.46-143.36ZM1763.24,487.65c3.97-1.07,4.5-4.27,3.96-8-3.97,1.07-4.5,4.27-3.96,8ZM2855.24,535.65c1.82,9.75-2.41,18.12-13.02,18.11-13.98-.02-28.52-23.43-47.77-22.03-30.28,2.2-64.63,63.76-82.2,85.94-6.03,5.24-7.79,3.76-14.4,2.33s4.36,13.19,6.06,14.96c3.69,3.82,9.74,8.32,15.28,5.71,4.09-1.93,37.12-48.57,45-57.05,9.69-10.43,24.64-26.56,39.96-26.06,17.79.57,35.66,25.37,53.07,17.09,10.07-4.78,6.63-32.71-1.99-39ZM2894.61,669.02c8.11-9.98-13.74-79.73-19.36-94.4-1.9-4.97-3.63-10.88-7.04-14.96.39,9.7-5.69,20.64-16.17,21.95-22.3,2.8-34.68-28.56-62.22-14.37-22.72,11.71-48.14,58.02-66.61,77.39l-15.97,2c15.35,30.98,12.64,64.7,4.01,97.02,7.52-3.76,19.64-46.93,29.96-39.99,5.13,19.89-1.45,40.65-5.96,59.99l11.97-7.99-1.97,9.99,4.85-2.13,2.12,4.12,17.66-19.69c9.12,2.87,10.45,8.78,9.33,17.7-17.78-12.86-28.89,32.2-38.97,32.07-7.99-.1-5.73-8.94-4.99-14.06l1.97,8.98c0,1.77,4.03,1.31,4.93.93,2.4-1.03,13.86-19.57,15.07-23.91l-10.98,9.96-3.02-7.95-3.95,5.97c-1.08-7.68-2.39-14.47-11.16-8.12-3.33,2.41-18.33,25.66-21.21,30.79-9.89,17.61-15.17,36.41-26.04,53.96-3.97,6.42-18,27.42-26.46,25.2-10-9.78-.59-22.54,4.84-31.8-15.33,7.03-38.86-1.88-45.98,15.98,10.01-6.45,22.43,2.23,22.99,12.95,1.25,24.08-38.97,48.85-51.83,67.23-6.52,9.31-16.42,30.06-19.05,40.98-.72,2.98-.2,3.35,2.73,2.73,47.53-18.71,95.6-36.67,138.9-64.11,5.52-9.46-25.72-15.61-31.8-22.72-19.69-23.06,23.39-73.38,49.09-49.09,22.92,21.67,5.2,72.88-12.21,93.88-19.77,23.84-76.07,45.46-105.8,56.2s-91.83,37.96-56.03-24.03c3.07,6.19-12.96,31.81-3.67,34.07,16.93.97,33.75-6.57,49.7-12.04,58.11-19.91,143.38-49.65,132.44-126.52-7.26-51.03-65.2-5.56-51.21,21.23,7.47,14.3,34.95,9.39,33.93,26.25-.53,8.84-24.69,20.89-32.85,25.35-34.89,19.03-73.71,33.2-111.11,46.63l-6.04-1.17c-4.58-7.72,12.41-42.09,19.8-48.82-3.31-2.32-8.87,4.52-12.94,7.06-27,16.85-55.03,32.94-85.04,43.97-.46,3.71,4.08,1.58,6.09,1.09,17.55-4.25,35.14-13.14,53.9-13.1l-14.13,22.85-85.86,39.11,95.98-7.97c1.14,4.59-.83,3.28-2.51,4.58-6.86,5.29-15.86,8.73-22.57,15.32-2.37,2.33-17.88,21.77-18.52,23.52-.68,1.85-1.47,5.71.78,6.78,8.74,6.23,41.11-2.99,51.91-6.14,28.27-8.23,60.76-20.91,88.89-31.11,7.01-2.54,17-9.1,23.08-10.93,2.79-.84,3.56.21,2.94,2.94l-5.98,7.01c.95-.05,2.08.33,2.97,0,1.49-.55,24.73-16.53,26.19-18.01,2.48-2.51,1.34-4.68,2.78-6.98.41-.66,11.59-11.52,3.1-8.97-13.91,4.18-32.67,15.07-47.1,20.91-31.31,12.66-67.09,27.91-99.5,36.5-4.98,1.32-26.34,6.97-29.28,6.33-11.33-2.46,8.56-20.77,11.9-23.7,8.88-7.77,60.56-40.68,69.94-42.09,2.77-.41,3.83.04,2.98,2.99-.93,3.2-20,25.68-23,27.02-1.06.48-3.38.39-2.96-.97,2.26-7.23,14.03-11.5,13-19-22.4,16.44-52.42,25.95-69,49,8.17,1.38,17.47-2.18,25.52-4.48,17.61-5.03,37.63-12.6,54.97-19.03,27.21-10.09,69.8-33.58,94.98-39.02,2.83-.61,5.65-.66,8.51-.47l-9.98,15,2.96.97c43.49-34.85,87.36-72.02,122.06-115.95,8.18-10.36,31.45-42.07,34.94-53.07.96-3.03.07-3.17-2.61-2.64-18.92,3.75-34.63.83-53.1-2.09-6.79,17.67-14.46,35.01-23.22,51.8-7.56,14.5-28.44,42.8-32.14,55.91-.94,3.32-2.11,6.37.99,9.18,7.47,5.65,27.09-14.5,29.12-19.21,1.11-2.58-.85-5.37-.13-7.99,3.22-11.66,40.84-43.22,49.1-56.95,3.31-5.51,7.6-14.56-1.99-14.97l.87,3.91-6.85,6.07c-2.17-11.18,15.55-20.88,17.64-6.53.92,6.3-8.53,17.51-12.64,22.55-8.69,10.65-27.42,25.86-34.02,36.13-2.79,4.34-1.16,8.02-4.08,13.68s-15.65,19.32-20.88,23.21c-11.33,8.42-27.2,7.33-23.2-9.03,2.8-11.43,25.17-42.54,32.2-55.97,31.75-60.64,57.96-141.02,26.98-207.07-4.29-9.14-11.41-22.81-22-24.97l-8.01,33.99c16.8-8.83,24.43,29.06,25.97,41.02,9.68,75.11-34.84,136.64-63.41,200.56-6.56,14.67-13.21,28.39-10.3,45.15l9.72,4.26c-15.3,9.2-17.06-5.56-15.77-17.78,2.88-27.24,33.14-71.72,45.15-98.84,7.36-16.61,13.87-33.74,18.68-51.3l-34.78-10.67c-5.41,3.62-10.47,8.87-11.3,15.59-2.87.15-4.78,1-3.78-2.77,1.29-4.85,9.46-16.71,14.86-17.26l38.94,10.05c8.89-39.58,12.28-75.7-4.02-114.01l-5.93,3.07-9.55-10.36c7.09-12.47,1.56-43.19,22.25-32.45,11.14,5.79,22.35,32.27,25.77,44.21,10.06,35.12,7.6,67.84.12,103.15-1.98,9.32-4.51,18.71-8.48,27.4.5,5.6,51.29,9.57,58.88,3,1.42-1.23,14.27-29.76,15.93-34.07,11.38-29.48,14.47-71.06,14.83-102.75.06-5.22-3.61-12.9-1.78-19.21l3.97,7.01c3.85,19.65-.94,40.07-2.07,59.93-.12,2.19-1.29,7.58,2.06,7.05,5.11-30.11,7.13-60.37,6.03-90.98l-8.01,6.97c-.4-8.36,2.56-7.12,5.39-10.61ZM1453.2,789.65c-50.71,15.43-112.27,25.11-164.74,13.75-34.69-7.51-29.17-28.9,2.69-36.82,34.11-8.49,67.49-3.2,79.11-44.89,9.1-32.68-6.95-108.25-54.43-78.43-11.88,7.47-23.59,29.52-13.6,42.38,8.92,11.48,63.6,4.46,56.59,36.56-3.98,18.26-48.93,18.02-65.17,22.89-26.17,7.86-47.09,23.53-39.07,54.2,4.89,18.68,34.93,26.51,51.89,28.11,50.01,4.72,99.96-4.11,146.79-20.74l-.07-17ZM1461.24,815.65l17.4-6.88-7.44-167.12c-5.24,5.19-12.24,15.31-15.07,21.91-6.1,14.2-2.21,77.72-.89,97.07,1.26,18.32,4.44,36.74,6,55.02ZM1172.6,677.93c-5.68,2.91-9.79,7.31-13,12.75l14.62,14.94,12.51-14.99-14.13-12.7ZM1207.2,687.65c-5.11-.79-3.11.44-4.17,2.81-10.29,22.86-1.79,21.72.1,40.42,1.5,14.8-15.37,23.13-23.57,34.11-16.84,22.57-31.35,68.55,14.19,60.19,12.36-2.27,20.39-12.8,31.45-17.53,16.53,80.23,108.7,56.82,168.03,52.01l-.02-14.02c-41.46,4.1-121.06,23.64-146.41-20.58-7.54-13.15-25.33-68.12-25.65-82.53-.3-13.62,17.76-21.82,22.07-34.87-3.55-3.28-18.94,20.34-25.97,17.98l-10.05-38ZM805.2,777.64c.22-10.44-3.3-20.46-2.03-31.06,1.13-9.39,7.53-16.65,5.98-27.77-1.44-10.39-10.11-10.08-13.72-16.38-2.73-4.77-.53-10.83-4.2-12.78l4.22,46.75,9.74,41.23ZM1172.49,707.79l-11.34,12.86c0,2.94,12.04,15.32,14.79,14.85l13.08-14.86-16.53-12.85ZM2662.57,872.99c14.54-12.33,30.7-57.75,41.04-75.94,7.35-12.92,23.61-27.88,28.63-39.37,2.99-6.83,9.54-46.58,4.95-50.02-8.93,10.71-12.81,26.52-20.3,38.67-2.51,4.07-6.82,6.6-9.33,10.67-21.41,34.65-40.65,65.03-74.33,89.67,5.29,4.49,32.75-6.23,33.98-5-2.52,12.21-14.97,20.34-11.98,33.98,2.8.37,5.3-.92,7.35-2.66ZM2774.99,753.89c-.21-.33-6.54-2.71-7.48-2.04l-4.29,7.79h11.99c-.22-1.78.56-4.53-.22-5.75ZM1457.14,817.56c1.4-2-.44-8.38-4.58-7.63l-33.3,12.76-2.03,6.95c1.86,1.87,38.71-10.37,39.91-12.09ZM1413.21,825.65l-16.11,3.15,4.14,62.85c.83.75,17.51-1.9,16.08-7.04l-4.11-58.96ZM2606.52,914.95c7.82-7.82,30.3-32.24,23.72-43.33-14.16-10.52-30.83,1.46-45,6.05l16.54.29c7.32,3.34,6.34,10.73,3.87,17.13-5.35,13.89-49.43,43.16-63.77,52.21l-112.65,60.32c11.72-1.46,25.14-4.41,35.99-8.98,39.92-16.83,111.26-53.68,141.3-83.7ZM2491.21,935.62l-.96-3.94-85.05,21.95c.91-2.53,4.06-4.25-.98-4.01-17.89.84-41.73,12.8-61.01,12.04-3.38,17.99,14.27,11.28,26.07,9.06,28.15-5.29,64.47-15.34,91.92-24.08,4.53-1.44,28.33-9.26,30-11.02ZM1921.22,1003.65v-30c-10.35-.2-24.77-.88-34.47-4.53-2.63-.99-10.08-3.27-6.51-7.49,8.96,5.7,110.1,16.55,110.99,11.01l-1.04-5.02c-10.66,5.95-8.35-2.37-12.21-3.67-11.08-3.74-37.44-6.04-51.14-8.91-12.36-2.59-24.47-6.56-36.68-9.33-6.02-1.37,1.24,4.45,1.26,8.92.01,2.97-.83,6.33-4.18,7.02-2.78-8.91.49-19.5-12.01-19.99l-4.01,61.99c17.24-2.68,32.79-1.74,50,0ZM2025.23,971.66l-30-4-.02,5.98c9.39-1.13,18.04.73,27.19,1.87,3.96.49,2.88-.45,2.83-3.85ZM2181.23,979.66h-20.02s.14,5.83.14,5.83l19.87,2.15v-7.98ZM2145.22,1069.65h64c4.43-10.08-.15-78.6-7.02-80.02-13.03-2.69-1.9,20.47-1.2,27.22.53,5.06,1.14,12.07-.82,16.76-4.48,10.7-47.35,23.53-54.96,36.04ZM2432.22,1085.65c12.24-.73,25.6,0,38,0,1.55,0,9.04,7.44,9.85,10.05,3.59,11.59-2.03,20.74-7.21,30.59l-14.62,19.38c45.31-16.88,84.33-46.11,126.02-69.99,5.95-.36,1.51,2.26-.34,3.67-19.13,14.54-40.42,26.47-60.69,39.31,1.56,3,4.82-.57,6.65-1.35,37.87-16.11,73.61-36.39,109.3-56.7l-5.95-1.95,7.99-6.99c-30.68,9.18-59.73,23.43-90.47,32.51-14.07,4.16-55.29,19.42-60.25-.96-3.67-5.67,13.79-22.72,12.71-23.56l-79.98,26.01c.29,5.23,7.65.05,8.99-.03ZM2094.54,1089.82l-4.62,6.83,10.31,12.96,6.75-12.57-12.44-7.22ZM2098.63,1117.87l-7.02,6.77c3.14,3.68,6.45,12.64,12.36,10.89l4.97-10.44c-2.03-3.48-5.91-8.38-10.31-7.21Z"/>
    <path class="st0" d="M1905.22,439.65l-1.03,1.96c-3.83.1-11.09,4.55-12.97.04,4.39-1.05,9.85-1.12,14-2Z"/>
    <path class="st0" d="M1103.2,675.61l-11.97.05c-2.04,42.53,1.9,85.05,9.76,126.84,2.56,3.71,21.77-5.56,28.86,17.52,10.28,33.44-9.6,46.24-9.62,68.64-.02,21.02,23.79,68.86,28.44,94.54,3.81,21.04,4.32,50.96-11.47,67.44-4.01,4.19-20.69,14.94-23.77,5.72-3.75-11.23,23.63-38.09,17.85-53.74l-32.06-90.95c3.96-.78,4.76,1.84,6.39,4.59,4.12,6.97,30.72,79.53,31.48,86.61,2.2,20.48-15.96,34.25-17.86,52.78,15.4-3.46,24.49-22.46,25.97-37.01,4.59-45.1-21.24-85.97-30-128.97-1.21-.95-11.02,14.26-12.77,16.24-.76.85-2.2,7.3-5.19,3.74-1.95-2.32,17.14-26.1,19.74-31.24,11.13-21.96,23.12-73.99-15.75-70.74,2.26,5.54,1.98,16,4.36,20.62,2.25,4.38,10.11,3.88,12.59,9.4,7.2,16.04-18.25,54.38-27.97,67.96-1.31-5.95,3.48-9.78,2.94-16.77-.89-11.62-10.51-30.47-12.03-43.15-4.52-3.29-38.71,20.14-43.91,24.99,28.66,37.14,68.61,72.91,71.99,122.93-5.98,1.01-9.46-4.23-13.01-7.97-12.28-12.95-24.91-34.18-37.03-48.97-5-6.11-38.31-45.63-41.32-46.75l-4.8.96-38.72,46.84c-4.62,3.4-10.72,1.54-16.14,1.89-2.98.19-5.78-1.52-4.94,2.98,9.21,6.57,17.7,23.93,27.23,28.78,11.51,5.85,35.11,1.3,44.7,17.32l.04,2.9-7.98,7.01c79.22,60.51,165.61,110.67,249.04,164.99,9.07,5.9,19.96,12.02,26.96,20.02-7.17-.03-13.69-5.55-19.83-9.15-41.45-24.26-84.49-52.76-124.8-79.2-47.98-31.48-96.01-63.52-141.33-98.63l13.92-8c-9.97-12.59-27.23-6.74-40.35-11.61-10.72-3.98-42.59-46.08-50.39-57.61-1.56-2.31-8.95-11.94-7.21-13.77,4.34-1.01,4.44,2.42,6.42,4.56,7.72,8.37,12.48,20.04,21.55,27.43-.22-20.05,12.72-35.68,24.99-50.03,3.49-4.08,17.97-16.23,18.8-19.32,1.04-3.86-10.45-16.08-13.92-11.42-4.02,5.4-7.41,12.94-12.83,18.79-49.73,53.75-113.73,15.23-136.55-41.5-7.62-18.94-20.22-76.59-16.03-95.09.67-2.97,2.72-7.6,6.53-7.43,6.64,1.6,6.13,35.21,7.27,42.75,3.79,25.04,13.14,58.06,32.81,75.19,1.73,1.51,11.57,9.46,12.93,8.05-5.98-13.11-12.53-25.89-17.48-39.5-16.42-45.11-19.06-91.32-28.45-137.68l14.97-30.81c6.22-1.46,9.04,14.01,9.99,17.98,5.52,23.03,5.29,51.74,9.61,76.39,5.49,31.32,14.41,64.19,26.4,93.6,2.14,5.25,10.26,26.84,14.19,27.58,23.97-1.85,42.39-16.09,58.75-32.55-30.06-32.42-62.03-70.14-82.31-109.66-10.71-20.88-6.69-26.73-3.65-49.36l6.08,1.36,35.9,37.68c1.56,6.92-11.97,2.56-9.97,7.94,1.22,3.29,13.18,19.1,16.35,23.66,26.13,37.65,57.7,73.22,90.61,105.01,17.89-13.03,36.68-30.22,59.02-33.66-13.89-59.6-10.97-121.23-13.18-182.02,4.85-6.38,9.66-17.53,16.14-22.01,1.77-1.22,2.64-3.55,5.11-1.02l19.92,65.03ZM1081.19,617.66c-4.6-1.16-3.28.91-4.55,2.52-11.94,15.19-7.58,14.38-7.34,30.39.8,52.91-.23,98.75,8.5,151.5,4.67,28.21,11.6,56.44,20.41,83.58,2.34-4.81,8.97-14.06,9.11-18.88.42-15.29-10.94-52.02-13.76-70.44-6.54-42.58-9.67-85.53-8.32-128.66,2.27-2.43,14.4,8.8,11.96,1.03l-16-51.03ZM847.21,657.64c-4.56-.81-3.19.25-4.45,2.56-9.82,17.9-5.76,18.02-3.69,34.6,6.42,51.4,12.66,106.65,36.45,153.55,5.35,10.55,7.91,15.8,21.71,15.27-34.51-63.17-41.42-135.66-50.01-205.99ZM911.22,711.63l-29.98-29.98c-3.1,19.05-2.88,24.66,5.64,41.34,26.79,52.5,72.31,97.57,111.62,140.52,1.32.22,17.16-9.88,11.75-13.86-29.38-27.94-56.77-58.47-80.69-91.33-6.75-9.28-25.64-34.28-28.29-43.73-1.51-5.37,7.85-2.18,9.95-2.96ZM823.22,772.65c-.99-8.93,0-20.63,0-30,0-.34-2.69-3.14-3.98-3,2.7,49.88,12.24,115.79,58.53,144.45,42.26,26.17,79.49,6.06,101.48-33.48l-13.03-14.93c-49.08,57.55-113.68,39.42-135.03-31-2.33-7.67-7.17-24.84-7.97-32.03ZM1081.23,839.62l-6.99-21.95c-31.13,15.89-60.36,37.25-84.32,62.68-6.78,7.2-40.63,45.07-32.92,54.37l5.17,2.87c10.82.28,28.14-29.12,36.02-37.97,21.81-24.5,52.34-48.6,83.04-60ZM1113.2,855.64c-.45-5.78,2.09-16.63-3.96-19.98.45,5.78-2.09,16.63,3.96,19.98ZM1034.85,876.1c-5.68-2.64-10.17,6.82-15.62,8.54l83.97,101c-4.01-28.34-23.76-55.56-41.19-77.78-3.28-4.19-25.27-30.88-27.16-31.76Z"/>
    <path class="st0" d="M1009.22,517.65c-.42,5.24-.28,3.32,3.01,3.93,13.84,2.57,28.13,1.56,41.97,4.13,3.27.61,3.46-1.31,3,3.92-7.33.77-52.7-1.02-53.98-7.06,1.8-21.1,54.12-4.78,59.65-13.28l20.34-89.62c-3.07.14-5.88-.76-8.19-2.82-3.86-3.44-2.17-8.19-5.79-9.2-2.49,16.01-9.75,35.73-24.02,44.03-3.61,4.91,23.3,4.29,26,3.98,4.76,3.47-34.11,8.44-31.97-.96,7.5-9.11,16.26-20.26,20.94-31.09,2.93-6.78,10.25-27.31,5.07-33.01-24.62-12.8-58.72,31.47-59.98,52.28-.36,5.94,3.78,11.09.99,16.77-3.29,6.7-24.87,11.05-32.08,11.97l-68.96,4.02c-1.36-1.19,15.05-28.5,17.16-31.82,26.83-42.18,61.11-81.01,90.9-121.1l51.91-7.07c.96,5.7-1.17,3.35-4.6,4.28-14.66,3.97-30.45,2.76-44.79,8.32-36.77,44.78-71.7,91.24-102.58,140.41,15.44,2.28,31.54-1.34,47.01-2.99,15.33-1.63,28.13.61,42.94-8.15-10.81-27.99,24.59-75.03,53.06-74.06,12.69.43,17.56,5.6,17,18.18,3.58-8.23,21.01-7.26,21.9-8.09s4.33-18.29,6.04-22.95c5.86-15.96,23.82-67.23,33.6-76.97,3.54-3.53,14.43-10.38,19.42-10.01l.56,12.56-34.64,93.36-4.89,2.09c-4.05-4.47,29.97-82.91,34-94.98.64-1.93,3.78-5.65,1-7l-17.41,14.59-33.6,89.38c9.96-1,32.82.92,28.73,15.57-3.94,14.12-17.09,9.87-20.39,12.78-.62.54-4.65,14.25-3.36,15.65l19-5.98c2.05,2.23-19.58,32.9,6.96,36.03,29.84,3.52,14.69-13.85,17.46-28.54,1.75-9.29,17.42-31.23,21.13-10.04,6.82,38.96-26.48,90.17-65.57,55.57l-7.96-15.02-4.01,37.98c26.63-4.59,53.08-11.41,78.55-20.43,12.13-4.29,83.67-33.4,85.28-42.85,2.67-15.74-58.14-7.43-44.78-44.68,8.29-23.11,39.86-42.33,57.82-17.91,14.99,20.4,14.04,50.79,3.15,72.89-20.57,41.77-127.63,72.11-171.6,74.45-3.76.2-5.63,1.74-8.38-2.47,2.45-3.96,5.57-2.52,8.94-3.02,41.58-6.24,143.03-28.33,164.49-67.51,10.79-19.7,14.77-71.21-11.37-79.58-25.1-8.04-51.69,35.52-34.53,45.06,10.97,6.1,64.56,10.41,30.3,34.93-17.46,12.5-54.44,26.91-75.38,34.62-26.87,9.9-55.82,19.35-84.48,20.52-5.41,35.02-1.23,61.69,40.81,55.82,10.86-1.52,46.84-20.81,51.76-19.57l5.11,5.14.09,23.44c1.6,2.26,8.68,1.37,11.28,1.22,8.17-.46,62.09-18.67,68.96-23.05.81-.52,2.61-2.38,1.99-2.98l-92-14.04c3.74-29.71,38.9-35.16,61.76-47.23,24.13-12.73,47.99-31.63,70.87-43.13,35.03-17.59,29.36,19.1,21.42,41.42-1.43,4.03-9.71,24.95-11.12,26.88-1.65,2.26-5.25,3.56-6.92,1.08,5.32-12.1,13.33-26.77,16.62-39.38,2.66-10.16,8.55-32.86-9.16-29.24-12.05,2.47-51.51,31.92-66.14,39.95s-63.98,26.4-68.48,39.52c-.7,2.04-1.15,3.96-.87,6.12l98,14.02-2.05,6.93c-21.56,4.89-72.55,34.45-92.53,28.62-11.09-3.23-6.66-20.79-7.43-29.56-49.86,21.32-102.39,43.94-98.07-35.09,1.66-30.43,10.7-66.97,20.06-95.94l-14.76-1.1c-4.82,14.97-9.3,30.3-12.63,45.71-5.11,23.66-6.01,53.85-12.28,75.72-9.34,32.58-52.2,44.43-67.76,11.16-4.5-9.63-6.04-34.12-9.55-38.48-5.54-6.9-30.52,9.05-35.98,14.04-32.5,29.75-37.69,70.12-57.37,104.63-13.72,24.07-33.47,13.46-31.63-10.64,3.65,1.45,2.8,7.89,5.14,11.83,4.28,7.2,12.23,8.94,17.95,2.26,16.17-34.14,46.6-118.95,88.33-127.64,34.38-7.16,14.07,47.84,42.44,56.64,35.35,10.97,46.93-26.87,48.15-54.08l-9.03,4.97h-45ZM1080.22,415.65c5.13,1.57,28.33,0,36,0,1.27,0,7.3-7.97,6.72-10.73-1.87-9.66-34.19-9.07-40.51-5.06-4.82,3.05-7.91,14.05-2.21,15.79ZM1163.21,427.66c-17.22,4.79-6.09,24.89-8.8,34.04-7.02,23.69-60.76,8.28-39.19-22.03-27.57,2.33-16.34,40.07,2.21,48.76,31.39,14.7,53.49-35.76,45.78-60.77Z"/>
    <path class="st0" d="M1469.47,297.93c6.23-3.62,12.03,9.46,15.67,12.8,21.13,19.34,72.32,22.56,99.1,30.92l-2.1,3.99c-37.83-7.76-83.89-9.86-109.92-41.95-32.56,41.1-66.18.88-90.28-25.89-2.45-.43-20.75,19.58-22.82,22.76-1.6,2.45-2.46,3.99-1.89,7.09,43.78,1.69,100.75,14.02,123.02,55.98,13.68,25.77,30.33,108.75,32.94,139.04.28,3.29,1.34,15.9-2.9,16.62-15.59-1.53-18.17-13.04-25.06-24.66-1.36-1.87-3.4,1.09-3.73,2.3-4.84,17.46,15.68,42.15,8.68,58.7-4.44,10.51-45.18,27.45-56.94,31.06-38.2,11.74-87.16,17.46-111.39-21.16-3.76.18-14.87,1.51-14.4,6.77,17.54,40.53,62.43,48.33,102.22,40.82,25.95-4.89,80.96-24.87,89.66-52.34,3.96-12.48-3.82-35.54,16.63-24.85,9.76,5.1,11.24,22.85,17.59,32.4,7.07,10.63,22.12,17.78,21.65,33.32-4.07-2.52-4.52-8.87-7.95-13.02-4.1-4.95-10.5-7.12-14.9-13.1-8.98-12.24-9.67-38.7-27.13-35.87,6.94,42.81-45.79,66.62-79.98,75.03-49.22,12.11-101.18,7.67-125.22-42.87-23.64,8.41-46.71,21.13-70.3,29.34-25.82,8.99-61.45,19.66-64.51-19.49-9.82,3.44-17.79,9.7-28.04,12.95-28.64,9.08-54.53,3.04-68.96-24.94-12.28,28.78-55.37,44.36-78.98,18.98-11.03-11.86-12.69-28.95-19.09-43.04-16.62.4-38.98,42.91-45.27,56.71-9.91,21.73-19.09,72.56-52.24,64.92-8.35-1.92-23.35-19.89-20.43-29.56,11.19,24.51,33.9,36.55,50.12,8.1,16.37-28.71,19.91-66.91,46.81-93.19,34.02-33.22,27.87,12.88,42.05,30.1,16.01,19.45,46.21,14.93,62.81-1.24,7.26-7.08,9.03-18.39,17.19-23.78,6.17,30.82,29.71,39.88,58.47,33.44,14.58-3.27,25.56-12.65,39.54-15.45.18,10.92,4.53,26.46,16.91,28.11,33.61,4.49,98.59-35.36,135.13-45.08,16.32-4.34,54.19-6.18,65.45-12.41,4.96-2.75,6.47-13.06,6.54-18.6-50.34,2.3-100.01-3.7-149.99-8.02-.57-4.25,3.41-6.5,6.16-8.82,7.54-6.33,56.54-40.22,62.92-41.1,1.63-.22,3.28-.11,4.9-.08,3.5,18.44-9.13,32.66-11.93,49.9,2.6,3.74,80.16,4.53,90.6,4.03,8.19,5.51-2.81,26.37-8.71,29.03l-59.95,9.06c19.67,41.7,79.91,28.68,115.04,16.03,9.53-3.43,43.69-17.24,45.01-27.14,1.79-13.5-13.07-32.37-9.91-53.77,3.66-24.79,18.39,9.75,24.01,13.74,3.4,2.41,5.07,4.32,7.79.17l-13.94-81.03c-7.19-1.51-3.18,11.56-4.16,16.84-12.87,69.57-79.5,87.09-138.55,58.88-26.54-12.68-11.74-11.42-13.28-35.7,10.2,4.52,18.82,10.21,29.98,13,102.03,25.5,150.25-99.64,41.59-135.59-11.37-3.76-63.52-16.03-72.36-13.55-8.89,22.22-16.33,45.85-15.2,70.11l15.39-13.78,17.31,9.48,12.26-11.21c10.48,8.28,28.23,12.53,15.11,26.62-13.16,14.12-14.55,5.98-28.8-.89l-11.94,9.52-19.32-13.72,1.97,25.99c-5.14.86-3.62-.75-4.57-4.31-6.06-22.75-3.12-48,2.73-70.53,1.72-6.63,9.16-31.26,15.28-32.89,20.3,2.57,41.21,5,61,10.31,143.43,38.47,66.94,198.38-55.37,141.38-10.16,14.98,8.27,21.05,20.41,25.57,62.2,23.18,117.31-4.13,122.5-72.55,6.91-91.16-49.16-111.2-126.73-119.22-2.87-.3-14.68-.98-13.22-4.72,10.59-12.22,20.15-27.89,33.09-37.13,7.42-.67,27.55,27.57,35.94,34.05,16.9,13.05,31.68,14.77,48.05.15,2.64-2.35,4.75-7.59,5.15-7.82ZM1380.59,413.05c2.03-2.46,3.59-6.36,1.72-9.37l-14.11-9.55-12.07,9.62-17.49-7.89-11.37,10.85,14.95,12.87c11.84-14.61,17.1-9.77,30.02-.45,1.98-2.26,6.89-4.31,8.35-6.08ZM1313.21,475.67l-7.13,1.85-52.86,38.12,45.96,4.03c4.02-14.91,11.94-28.56,14.03-44Z"/>
    <path class="st0" d="M1215.22,878.65c.21.73,6.04,5.94,7.66,8.34,10.68,15.87,30.06,46.3,33.44,64.56,6.95,37.61-34.48,112.24-77.14,79.14-20.9-16.22-14.89-37.95-13.88-59.98.13-2.88,1.61-8.07-3.04-7.04-8.24,17.69-5.86,41.4.62,59.33,13.2,36.52,54.58,46.66,80.31,15.61,15.55-18.77,18.82-41.67,23.03-64.95,12.48,27.97,14.26,61.54,42.77,79.35-3.87,28.12-2.48,55.54,7.88,82.01,5.71,14.58,16.99,29.51,21.61,44.4.95,3.07,2.1,4.9-2.22,4.22-15.89-30.65-33.37-61.45-35-97-.38-8.26,2.99-26.85,1.61-31.54s-9.3-7.63-12.7-11.36c-11.19-12.28-16.18-32.45-20.95-48.06l-7.62,21.35c-37.63,85.59-120.44,40.62-108.19-44.19.98-6.77,5.17-19.36,12.96-13.31,8.99,6.98.5,22.94.7,33.12.64,32.67,29.05,54.85,57.12,30.97,13.41-11.41,31.27-49.63,28.97-66.78-1.82-13.6-22.29-48.83-30.28-61.82-10.76-17.5-16.29-14.46-13.62-40.32.67-6.49,1.55-17.94,9.96-14.04,6.82,3.16,32.51,45.83,37.1,54.92,10.44,20.69,42.17,122.7,55.94,128.07,4.08.95,2.69-1.67,3.93-3.93,4.35-7.87,7.26-16.03,12.17-23.93,2.27-3.65,7.85-5.6,7.02-10.97-27.24-12.83-73-50.74-35.13-79.14,15.63-11.72,61.56-9.04,81.97-7.99,24.89,1.27,50.35,5.7,75.07,8.94,2.82,1.63-1.48,10.93-2.52,13.58-9.25,23.66-27.88,25.05-46.47,39.53l-21.07,67.91c19.1,2.63,41.86,8.45,46.03,30.03,5.86,5.51,13.75-25.45,9.09-32.12-9.18-5.54-21.36-1.57-29.84-8.16-23.74-18.46,16.7-86.68,39.16-55.16,18.96,26.6,19.31,91.17-8.42,113.44-2.25-8.87,5.79-12.7,8.39-18.59,11.23-25.49,12.08-65.7-2.71-90.11-16.57-27.35-48.75,25.86-34.69,44.7,8.74,11.7,36.76-2.38,35.08,24.94-.79,12.88-11.46,21.3-12.15,26.16-.8,5.67,3.55,11.76,4.07,17.88,3.26,38.42-7.06,63.71-32.07,91.96-1.65,1.86-11.64,13.3-13.94,11.04,29.83-37.31,55.61-75.79,34.41-125.39-15.76-36.87-64.85-19.39-95.57-28.49-3.99-5.4,7.46-20.39,11.22-25.04,25.08-31.06,65-50.06,97.04-72.96l10.91-22.07-113.07-8.14c-18.23,2.97-36.16-.96-45.27,18.78-14.62,31.67,27.21,49.57,48.34,63.38l-28.97,45.56c-13.15-6.27-19.12-20.43-24.75-32.88-23.2-51.38-30.9-102.94-69.7-148.17-1.24-1.44.1-3.75-4.59-2.54,1.6,8.78-2.18,25.45,0,33ZM1342.22,1027.65h36c.4,0,2.21,2.84,2.98,2.02l22-66.02c-25.61,15.05-47.64,34.11-63.82,59.21l2.84,4.79Z"/>
    <path class="st0" d="M1833.22,1158.65c1.34,8.01,13.86,22.6,13.96,24,.53,7.35-8.25-2.54-8.79-3.18-18.96-22.25-9.54-62.7-9.16-89.82,10.24,9.21,17.57,26.08,33.46,27.58,13.15,1.24,25.3-18.12,29.25-17.44,22.54,24.54,60.58,28.13,91.72,23.31,13.37-2.07,55-19.59,42.03,12.04-10.49,25.58-74.98,37.2-99.49,34.52-29.3-3.21-46.71-17.77-49.01-47.02-.23-2.96,1.61-5.81-2.95-4.97-2.84,2.74-6.15,4.74-6.98,9.02-5.65,29.22,24.13,51.25,49.95,54.98-2.67,7.17-13.41,1.81-18.74-.28-25.1-9.84-40.11-31.99-37.48-59.53l-15.6-7.39-12.18-12.82c2.03,17.27-2.75,40.55,0,57ZM1888.5,1107.77c-7.2,2.04-5.92,23.92-4.34,29.94,5.58,21.39,45.13,29,64.04,27.9,24.03-1.4,64.72-15.68,75.05-39.05-.06-4.46-3.47-4.83-7-5.07-9.01-.62-26.97,7.14-38.06,8.13-19.97,1.79-45.91.64-64.35-7.58-5.63-2.51-21.44-15.36-25.33-14.26Z"/>
    <path class="st0" d="M1761.22,1099.67l-6.62,5.64c-32.11-9.71-19.1-34.08-5.6-54.37l-17.76-25.29c-3.18,24.93,3.54,81.82-19.32,97.7-19.43,13.5-38.44-.87-48.68-17.7-8.37,24.96-29.04,30.46-41.04,3.97-8.11-.05-7.83,20.77-27.82,17.93-12.87-1.83-14.94-20.47-16.15-19.9-7.57,11.44-11.58,23.32-27.99,22.12-18.01-1.31-23.36-28.76-46.89-12.99-19.05,12.76-25.57,44.18-37.75,62.25-1.73,2.57-2.27,5.46-6.38,4.6,8.61-21.4,28.5-72.78,53.49-77.62,15.22-2.94,25.76,18.41,41.45,17.77,16.14-.66,18-23.58,24.02-22.14,7.42,1.78,12.9,49.52,42.02-1.97,7.83,5.25,11.25,22.16,22,22.17,10.75.02,14.65-18.37,22-24.17,7.2,6.65,10.35,17.85,19.57,22.38,13.19,6.49,26.77,1.49,33.18-11.67s7.53-35.39,8.33-49.67c.84-14.91-.8-30.15-.07-45.07,4.85-5.6,25.77,35.58,29.83,37.28-12.45,17.88-30.52,48.59,6.16,48.73Z"/>
    <path class="st0" d="M1145.19,611.66c.9,15.18,16.95,43.62,16.2,57.01-.18,3.11-.39,5.06-3.16,6.94l-9-3.94c-.09,27.59.19,55.44,2.01,82.97,2.26,34.26,16.05,94.68,7.01,125.05-3.89,13.06-9.64,19.05-14.1,2.03-19.71-75.19-13.38-156.73-16.86-233.12-.2-4.29-3.29-7.68-3.33-9.94-.03-2.04,14.24-31.03,21.23-27ZM1155.2,667.65l-13.96-47.03-11.6,17.66c4.35,12.73,1.18,28.26,1.49,42.46.97,45.14,2.76,90.72,8.35,135.65,2.88,23.12,8.6,46.03,10.74,69.28,12.54-24.97,3.4-49.55,1.02-75.04-4.55-48.95-7.63-97.71-6.01-146.97l9.97,3.99Z"/>
    <path class="st0" d="M985.22,683.67c14.52,32.83,47.3,77.36,31.46,114.45-.98,2.3-2.89,4.95-5.45,5.53,16.28-47.06-19.59-84.23-32.03-125.99l8-1-27.97-37.01c.65,8.92-3.65,18.54-4.03,27.07-.73,16.51,25.76,58.14,33.73,76.21,10.01,22.7,23.17,46.71-2.7,64.74-.23-6.44,7.28-11.82,8.56-17.43,6.51-28.65-31.91-79.24-41.95-107.2-4.43-12.32-1.69-28.62,1.29-41.46.6-2.6,2.03-13.54,6.05-11.91l35.03,51.09c-.15,8.12-9.05,2.16-10,2.91Z"/>
    <path class="st0" d="M1214.7,896.2c12.25,11.34-9.82,34.32-13.35,46.44,12.2,20.5,28.27,35.4,23.76,61.9-2.59,15.22-19.71,25.83-33.73,17.93-22.13-12.47-17.91-50.69-10.34-70.56l-41.18-30.9c-6.33-7.87-3.8-14.45-2.63-23.38,2.6-2.53,24.12,10.38,27.81,13.18s21.49,23.22,24.16,20.83c2.01-7.22,11.43-36.24,17.41-37.72,2.71-.37,6.09.43,8.08,2.27ZM1184.86,950.03c-2.4,19.79-9.71,32.8-2.23,53.21,10.89,29.72,41.73,16.56,38.43-12.4-2.07-18.15-15.87-31.69-25.12-46.17-.08-13.55,28.53-36.91,11.3-47.01-2.08,1.58-11.53,31.62-14.4,36.61-1.26,2.19-1.58,3.51-4.61,3.49-4.44-.03-35.37-36.15-47-36.11-6.56,18.45,12.65,22.23,24.92,32.06,6.44,5.16,10.74,12.96,18.71,16.32Z"/>
    <path class="st0" d="M1323.22,1061.65c-12.98,47.14,22.23,81.84,27.98,126-8.75-8.77-10.25-24.33-15.01-35.97-4.48-10.93-10.76-19.82-14.4-31.6-6.52-21.1-9.03-42.87-2.28-64.16l2.65-.41c42.09,5.05,112.1-13.84,107.15,51.23-1.65,21.62-23.46,50.39-38.13,65.85-4.15,4.38-8.58,10-14.92,11.08l32.59-39.41c15.51-20.38,27.25-66.06-3.66-77.56-2.56-.95-17.46-5.05-18.95-5.05h-63Z"/>
    <path class="st0" d="M980.52,996.35c39.83,41.19,78.33,64.4,118.95,100.1.89.78,7.24,2.17,3.74,5.2-2.79,2.41-44.53-29.17-49.78-33.2-45.26-34.69-88.5-75.59-123-121-6.86-9.03-23.47-29.55-27.19-38.82-.97-2.41.54-3.95,2.95-2.95,3.04,1.26,32.96,45.44,39.09,52.93,10.88,13.3,23.5,25.61,35.24,37.75Z"/>
    <path class="st0" d="M1318.82,926.25c23.96-2.6,61.27-1.34,85.5,1.3,3.02.33,4.97.2,6.86,3.1l-54.93,41.03c-2.88-.01-45.32-29.27-47.9-32.16-2.18-2.43-2.8-6.37-5.08-8.88.08-2.74,12.7-4.08,15.55-4.38ZM1401.22,931.65h-90c-.72,3.34,1.06,4.05,3.03,5.97,10.31,10.05,29.88,15.64,38.16,28.18l48.81-34.15Z"/>
    <path class="st0" d="M1058.93,683.34c-14.92,5.05-17.07,35.17-17.68,49.33-.7,16.36,4.41,31.46,6.37,47.58l2.92,3.2,6.75-.9c7.75,23.13-17.45,32.02-21.55,3.6-2.87-19.9,1.28-72.32,7.12-91.83,1.08-3.61,19.6-24.58,3.67-20.36-6.95,1.84-9.43,19.43-11.42,25.65-6.41,4.13-14.58-18.71-21.9-15.04-11.74,5.88,11.05,13.96,9.99,21.1-1.79,1.88-24.51-15.09-12.77-23.85,10.55-7.88,20.56,16.11,22.76,13.86-.62-18.95,20.31-41.44,25.73-12.31ZM1039.22,751.65v35c0,.91,4.25,12.93,5.19,13.13,6.44.47,10.81-2.3,10.89-9.09.07-6.06-6.03-.2-9.78-6.35l-6.3-32.69Z"/>
    <path class="st0" d="M1974.75,1064.16c19.29-2.42,42.52,13.85,38.53,34.48-1.03,5.33-14.44,8.77-19.99,10.08-12.94,3.04-29.6,4.08-42.82,2.68-6.77-.72-30.73-4.22-26.27-13.75,5.01-10.7,38.16-31.94,50.55-33.5ZM1929.23,1101.64c22,3.82,55.88,7.73,76.57-2.4,6.66-3.26,1.53-11.06-1.29-15.87-18.1-30.73-54.31-5.09-72.24,12.32-1.96,1.9-3.79,2.62-3.03,5.95Z"/>
    <path class="st0" d="M1413.22,1073.67c-21.86,18.49-51.97,25.64-75.99,40.99,29.81,10.9,58.55-8.04,83-23,3.5,7.37-13.85,15.18-19.67,18.33-20.5,11.09-43.66,18.04-66.51,9.8-2.22-3.1-.33-9.88,2.59-12.25,5.96-4.83,34.31-15.09,43.86-19.61,10.58-5,20.68-14.25,32.71-14.27Z"/>
    <path class="st0" d="M1519.21,337.66c-2.24,12.95-8.09,27.76-8.16,40.99-.21,40.64,13.96,78.63,17.95,116.2.61,5.75,1.93,14.54-2.81,18.78l-1.47-14.46c-9.57-43.08-24.97-102.52-14.95-145.98.42-1.82,5.83-20.16,9.44-15.54Z"/>
    <path class="st0" d="M1165.22,1129.63c-8.27-2.52-16.45-8.52-23.83-13.15-39.86-25.02-106.75-70.38-137.96-104.04-1.54-1.66-7.77-9-6.19-10.79,20.68,13.86,37.66,32.55,57.04,47.94,35.68,28.35,75.21,51.77,110.94,80.04Z"/>
    <path class="st0" d="M1161.25,399.66c-6.16,17.75-18.48,12.43-29.12,2.07-4.41-4.3-.6-10.29-6.9-6.07-2.17-3.03,13.54-19.77,17.43-21.74,8.35-2.3,15.44,10.25,19.28,9.59l15.99-11.55,18.98,16.99c-6.39,16.95-18.73,29.36-32.75,10.74l-2.92-.02ZM1174.62,377.87l-12.68,11.65-17.31-9.65-13.38,12.79c3.76,2.65,9.56,11.64,13.4,12.72,10.26,2.87,11.79-11.83,17.54-11.84l16.03,12.04,12.86-14.64c-3.88-3.7-11.02-14.48-16.45-13.06Z"/>
    <path class="st0" d="M1585.62,1022.08c7.37-4.24,28.02,11.66,29.38,16.98s-9.98,15.83-13.85,19.65c-7.6,3.2-19.73-11.6-22.72-10.98-6.7,5.01-5.75,12.88-16.01,11.91-4.49-.43-23.13-11.1-23.21-14.89,9.62-24.95,16.88-25.37,37.04-9.21l9.37-13.45ZM1590.51,1025.96c-14.38,18.57-16.88,15.51-34.31,2.04-3.99,3.14-12.42,10.89-10.81,16.34,7.75,5.41,16.21,13.87,24.5,7,3.21-2.66,3.98-7.09,8.37-7.86,7.36-.76,11.44,12.61,21.52,9.87,4.41-1.2,8.08-9.37,11.08-12.72l-20.34-14.67Z"/>
    <path class="st0" d="M1176.22,619.75l18.02,13.42c6.08-2.63,8.24-15,15.49-13.22l20.65,19.78-16.13,19.35-16.3-11.3c-5.59-1-9.02,14.74-20.82,11.03-3.33-1.05-17.82-13.09-17.89-16.11l16.97-22.95ZM1205.47,625.92l-11.23,13.39-18.02-13.59c-8.33,8.73-16.76,14.79-3.99,23.9,14.37,10.26,13.59-3.85,25.71-7.76,4.23.72,7.33,12.46,17.89,9.86l9.25-12.8c-3-3.76-15.43-15.41-19.61-13Z"/>
    <path class="st0" d="M1268.88,1105.3c-4.22,2.49-19.87-7.09-24.68-9.6l-6.05,12.01c-17.85-10.25-38.37-11.52-22.78-35.91l21.81,9.86c.68-3.73,4.37-14.49,8.71-13.8,14.95,11.43,40.75,14.13,22.98,37.45ZM1239.39,1091.78l24.87,9.66c16.38-15.61-6.51-23.16-19.9-25.92l-3.31,9.97c-8.18,1.72-13.72-5.01-20.57-7.68-4.95,3.98-9.68,8.54-4.34,13.89.76.76,15.47,9.59,16.41,9.74,4.39.69,5.91-6.61,6.85-9.66Z"/>
    <path class="st0" d="M933.1,509.76l2.7,11.3-14.25,13.92-20.3,42.67c.65-13.58,8.39-33.55,16.96-44.01,3.78-4.6,16.37-11.88,15-16.96-1.86-6.91-8.7.21-11.03,2.93-6.13,7.14-7.73,16.97-13.96,24.04-4.81-6.89-4.11-16.79-8.13-23.85-4.74-8.32-8.2.38-7.82,5.94,14.96,9.84,8.12,28.95,6.95,43.91-3.35.52-2.07-4.74-2.05-7.03.1-10.95,6.53-31.84-9.74-31.14-1.62-8.03,2.59-17.12,10.73-19.81l13.06,23.98c-1.81-7.5,15.36-30.54,21.9-25.88Z"/>
    <path class="st0" d="M1460.69,394.21c1.65,1.58,5.78,12.26,4.52,13.43l-5.98.02-.02-10.02h-5.98c-1.25,13.72-4.94,27.16-5.61,41.01-.34,6.96,5.98,22.6-6.38,25,1.58-7.45-3.64-45.86-7.99-49.01s-21.5-3.7-10.05-16.04c8.54-9.2,16.66,12.05,21.03,17.02,4.35.13,3.74-33.55,16.47-21.4ZM1435.21,409.63c-9.74-20.97-16.95-1.06-6.18,1.07,2.15.43,4.04-1.28,6.18-1.07ZM1445.2,439.64c.06-6.01-.96-12.63-2.56-18.41-.67-2.42-2.44-9.22-5.4-9.57,1.92,7.2,2.84,15.41,4.55,22.44.49,2,.6,6.01,3.41,5.54Z"/>
    <path class="st0" d="M1660.78,938c.69,1.2,1.35,5.35-.55,5.64-5.65-4.04-16.95-10.61-14.73-18.56,2.79-10.01,16.15-5.91-5.28-23.39l-10.73,13.34c-.67,4.4,14.65,11.17,9.31,20.24-.85,1.44-8.24,2.45-7.41,7.11l16.84,17.27c1.17-4.07,8.17-16.39,10.96-7.03-5.13,18.47-26.2,5.34-31-5.01-4.29-9.25,5.93-13.39,6.47-16.92.71-4.63-10.09-6.45-9.42-15.9.4-5.76,9.09-18.27,16.03-16.31,2.93.83,12.05,7.57,13.72,10.41,6.64,11.28-5.28,14.3-3.49,21.35,1.22,4.8,8.68,6.71,9.29,7.78Z"/>
    <path class="st0" d="M903.23,847.64c-3.11-2.97,12.09-11.14,14.03-12.95,7.18-6.66,12.56-15.65,12.1-25.74-10.87-6.9-26.08-7.62-37.27-1.42l.07,6.15c4.8,7.34,11.37,2.05,17.62,2.45,14.3.92-1.98,20.36-10.55,19.5l11.98-15.98c-24.36,11.97-35.16-17.21-11.03-20.05,53.6-6.33,36.05,35.58,3.06,48.04Z"/>
    <path class="st0" d="M2066.53,1160.34c-10.7-10.21-12.14-9.33.62-21.69l-11.65-15.65c2.21-5.21,8.51-14.05,14.61-13.46l14.84,15.48-9.6,13.36c12.95,11.65,12.94,18.85-1.39,29.13-3.86.87-5.43-5.27-7.44-7.18ZM2063.73,1116.17c-5.8,5.63,4.93,18.32,8.46,17.48,4.34-3.81,6.74-10.5,4.05-15.98l-4.43-3.72c-2.3-.58-6.38.58-8.07,2.23ZM2068.44,1143.82c-8.75,2.85.92,14.85,5.77,17.8,9.29-5,4.15-21.03-5.77-17.8Z"/>
    <path class="st0" d="M2209.2,1171.65c-.76.81-5.93-5.34-8.98-5.34-2.11,0-23.14,14.54-30.55,16.78-19.34,5.85-40.13,2.34-50.51-16.37-5.28-9.51-10.85-27.89.05-35.07-4.13,34.81,12.04,54.55,48.13,47.11,15.5-3.19,34.27-30.33,41.87-7.12Z"/>
    <path class="st0" d="M1175.22,867.67l-7.11-1.87c-3.95-10.45,1.64-29.51,15.19-25.32,15.26,4.71,12.8,18.25,3.91,28.12,1.15,4.77,17.25,2.76,5.28,21.32-4.34,6.73-6.41,9.85-15.17,6.65-22.66-8.27,1.5-25.02-2.09-28.9ZM1186.91,893.31l6.14-14.29-8.87-7.35c-5.5-8.76,15.67-16.18.17-26.14-2.49-1.6-4.81-2.46-7.81-2l-7.31,13.17c.09,5.65,7.25,6.11,9.04,8.96,5.28,8.39-8.67,15.12-6.94,20.79,1.1,3.58,11.07,9.65,15.57,6.87Z"/>
    <path class="st0" d="M821.2,613.65l-3.86,32.9,4.38,2.73,7.48-1.61c1.05,9.25-7.83,35.75-20.13,27.12-5.79-4.06,1.05-52.12,4.33-61.06l7.79-.08ZM815.24,655.65l1.96-37.99-5.73,25.24c-1.73,20.7-.69,45.75,13.73,11.73l-9.96,1.02Z"/>
    <path class="st0" d="M1048.22,361.65l-2.03-4.01c2.44-3.25,49.28-12.21,55.98-12.07,4.08.09,5.87-1.26,5.04,4.05l-27.98,4.05,16,1.99v5.99h-47.01Z"/>
    <path class="st0" d="M1441.22,621.67c-5.51,10.2-8.31,22.27-7.79,33.87l5.78,4.1-10,.02-1.97-20c-2.07,14.53-6.3,25.63,0,39.98l12.01-15.98,3.99,1.01c1.69,5.85-13.27,22.27-18,18.97-6.33-17.35-5.61-42.33,5-57.97,3.91-5.76,1.91,3.19,4.96,1.97l6.02-5.97Z"/>
    <path class="st0" d="M1526.66,696.2c1.22,1.26,3.28,6.43,2.56,7.43-11.9,3.07-24.57,9.22-34.04,16.98-2.17,1.78-7.19,11.96-8.99,7.08-4.19-11.36,3.64-8.16,8.84-11.22,9.82-5.77,18.1-13.71,30.21-15.81l-34.01-14.99,5.98,15c-10.49,1.51-10.73-14.63-9.98-23,1.69-1.92,18.01,10.14,21.2,11.78,4.82,2.47,14.82,3.26,18.22,6.76Z"/>
    <path class="st0" d="M1007.23,641.64l11.97-3.99c6.09,11.29-5.77,27.48-17.1,20.13-8.79-5.69-6.29-36.39,2.12-44.12.68,7.75-8.38,36.87.25,39.75s10.17-2.23,12.73-8.78l-11.9.95c-3.17-9.46-.6-19.14,2.48-28.37.86-2.57,2.4-9.15,5.42-9.55l-5.97,33.98Z"/>
    <path class="st0" d="M1287.21,705.66c-.19,10.37-14.36,37.16-26.1,22.58-11.69-14.52-4.41-56.89.14-74.57,3.42-.51,2.14,4.76,1.96,6.95-.96,11.74-10.32,62.39,3.32,66.82,13.08,4.25,9.67-20.86,20.69-21.77Z"/>
    <path class="st0" d="M1272.55,620c4.72-.37,17.21,12.72,20.34,16.93-10.87,29.61-20.08,24.63-37.47,3.43,2.43-5.35,11.56-19.93,17.12-20.37ZM1272.49,625.8c-3.44,3.41-12.43,9.2-11.06,14.45l16.63,13.36,8.86-14.66-14.43-13.15Z"/>
    <path class="st0" d="M947.2,987.65c-28.73-25.9-52.31-57.12-77.98-85.98,2.45-2.15,18.5,15.28,21.03,17.95,15.45,16.35,40.12,41.78,52.94,59.06,1.98,2.67,4.51,5.28,4.02,8.96Z"/>
    <path class="st0" d="M1379.86,244.98c-7.09-5.96-11.75-11.9-22.64-13.35,9.58-9.25,27.27-11.63,40.02-6.99,16.21,5.91-6.22,16.49-12.01,21.94-2.09.86-3.81-.27-5.37-1.59ZM1397.22,229.67c-5.87-.1-10.86-2.13-16.89-2.09-1.92.01-10.95,1.02-11.09,4.04,13.42,5.27,17.53,15.12,27.98-1.95Z"/>
    <path class="st0" d="M1190.58,429.83c4.8-1.26,19.14,12.58,22.31,17.11l-12.64,20.6-22.81-17.3,13.15-20.41ZM1192.22,433.69l-10.97,14.97c4.58,2.87,13.31,12.41,18.66,10.83l6.74-10.86-14.44-14.93Z"/>
    <path class="st0" d="M2202.77,1118.04c7.19,12.09-10.52-.54-11.78-1.16-11.57-5.72-23.63-12.63-30.79,2.76-6.82,14.68-4.48,24.62,13,25-29.74,14.96-27.65-45.28,4.55-38.54,2.3.48,24.3,10.75,25.01,11.94Z"/>
    <path class="st0" d="M1685.22,893.65l-5.98,8c-.64-9.55-6.71-17.88-2.53-27.53,1.22-2.81.47-3.03,4.48-2.47,1,.99,8.03,24.85,8.03,27v34l4.71,2.77,7.27-3.77c-.17,11.4-15.98,9.21-15.98,1v-39Z"/>
    <path class="st0" d="M929.22,623.63c10.4-13.82,39.46.57,43.11-20.16-3.69-9.19-14.94-9.06-23.18-6.87-6.45,1.71-9.7,8.1-15.93,9.03,4.87-7.56,13.99-15.3,23.25-15.91s24.26,10.47,18.48,20.65c-7.72,13.59-32.14,9.97-45.73,13.26Z"/>
    <path class="st0" d="M1051.04,409.85c4.43,6.37-16.02,41.14-26.98,32-11.65-9.72,4.39-35.03,19.93-34.1,1.29.08,6.71,1.63,7.05,2.11ZM1040.58,411.98c-7.45,2.06-22.97,22.38-12.34,25.66,7.05,2.17,27.59-29.88,12.34-25.66Z"/>
    <path class="st0" d="M2297.85,1048.28c11.01-12.01,40.59,4.57,32.36,21.38-4.28,8.74-29.97-4.49-35.03-9.02-3.21-2.88.17-9.62,2.68-12.36ZM2304.65,1050.04c-2.39.73-3.76,2.95-5.4,4.61,5.22,3.95,24.45,20.65,29.03,10.98,4.09-8.62-15.38-18.13-23.64-15.59Z"/>
    <path class="st0" d="M1452.54,522c4.69-.39,17.23,12.74,20.36,16.94l-10.67,18.48-24.75-19.03c-.89-4.54,10.64-16.03,15.06-16.39ZM1463.18,551.66c.07-4.72,6.08-9.38,3.13-13.99-.39-.6-10.48-8.76-11.13-9.07-6.76-3.19-11.34,5.07-11.96,11.03l19.96,12.03Z"/>
    <path class="st0" d="M1075.22,1001.65c-4.41-7.15-12.35-17.86-10.1-26.66,2.95-11.54,20.85,10.71,23.04,14.73,1.02,1.87,2.88,6.22-.91,5.92-2.14-5.04-11.12-19.52-16.99-17.98-8.76,2.3,5.72,14.01,6.97,16-.28-.5-.65-4.24.99-3.99,2.42,2.6,5.8,4.18,4.99,7.99-.22.28-5.8-3.69-5.98-4,.93,1.48,1.18,4.95,3.09,7.85,3.95,5.99,28.9,36.73,28.86,39.17-.05,3.2-4.54,2.81-7.41,1.46-9.55-4.51-21.71-23.13-33.89-30.12-12.13-6.97-33.44-6.68-32.64-24.34l17.98,4.01-11.98,1.99c-4.96,4.54,18.71,10.35,21.37,11.61,16.97,8,28,24.04,41.63,36.37,1.64-5.74-7.58-10.71-10.95-15.05-5.48-7.05-13.55-17.62-18.06-24.94l-.99,5.99-19.01-13.97,20,7.98Z"/>
    <path class="st0" d="M1105.22,760.65c.18,1.08,2.01,3.1,2.31,4.69l2.67.5c9.45.84,9.73-3.98,9-12.2-16.48,4.36-7.54-24.5-12.06-34.96l4.07-3.04v29c0,1.12,2.93,4.45,2.01,7l9.02-2.03c4.38,9.96-2.15,23.21-13.63,19.71-8.98-2.73-7.61-23-7.38-30.66l3.98-23.02c1.61,13.68-2.19,31.98,0,45Z"/>
    <path class="st0" d="M1263.21,197.66c.9,4.4-2.17,4.53-4.91,6.07-6.5,3.67-15.09,6.08-21.76,10.24-3.13,1.96-22.96,20.18-25.32,17.66l8.01-18.98-6.01-1.02c-.49-7,6.64-6.31,11.98-5.98l-3,15.98c10.48-13.01,24.75-20.4,41-23.98Z"/>
    <path class="st0" d="M1699.2,965.65c-17.39-1.03-10.17,18.2,1.03.01,5.1,7.83-6.95,8.2-8.57,10.44-3.45,4.75-3.18,37.42-9.43,37.52-7.99-5.78-3.98-17.22-6.98-25.95l7.96,19.98c6.28-16.93-8.84-39.74,11.33-47.78l4.67,5.79Z"/>
    <path class="st0" d="M1399.23,455.66l6.03-.98-.03-13.02c11.28,1.39,6.21,18.37-2.73,19.83-15.62-2.65-8.88-54.16,2.7-61.84-2.52,18.67-10.51,37.1-5.97,56.01Z"/>
    <path class="st0" d="M1638.58,964.28c11.26,12.34-3.29,14.33-5.07,20.81-1.96,7.13,4.32,12.32,11.37,10.2,1.13-.66,8.49-19.72,12.33-15.62-1.07,5.94-8.42,21.78-14.94,21.95-15.92-5.17-20.92-17.67-4.91-27.14l-10.13-14.8c3.62-.4,9.05,2.09,11.35,4.61Z"/>
    <path class="st0" d="M1643.21,1183.64c-6.07.99-3.18-1.56-4.03-4.87-.59-2.27-7.7-40.33-13.95-33.12.9,10.79,3.1,22.91,3.57,33.61.14,3.23.15,5.45-3.56,6.38-.35-7.41-6.34-40-1.82-43.78,13.08-4.13,14.61,11.8,16.83,21.76,1.46,6.56,3.19,13.21,2.97,20.01Z"/>
    <path class="st0" d="M1666.75,868.09c1.64,2.85-.24,8.66.57,12.47.97,4.59,9.82,21.19-.07,21.1-1.14-26.63-21.52-47.59-22-73.99l15.52,35.49c.49,2.89,5.39,3.89,5.99,4.93Z"/>
    <path class="st0" d="M937.22,629.67c-10.98,15.29-14.62,32.28-14.07,51.07.13,4.62,1.51,17.31,2.51,21.46,4.91,20.33,12.49,15.93,17.55-1.59l4.02,2.08c-3.33,11.04-9.36,23.42-19.69,9.64-11.55-15.41-9.63-51.11-3.26-68.63,1.96-5.38,6.35-13.8,12.94-14.04Z"/>
    <path class="st0" d="M1275.21,1031.67c-3.64,12.81-2.76,39.39,16.01,35.99.22,5.91,1.22,12.53-4.98,15.47-18.47-5.2-18.67-26.13-16.79-42.26.37-3.14.69-10.95,5.76-9.21ZM1287.21,1079.64l-.91-8.18c-1.22-2.12-5.16.26-7.02-.76-3.6-1.97-2.53-6.87-6.03-7.04-.24,7.74,6.47,14.94,13.97,15.98Z"/>
    <path class="st0" d="M1869.2,1035.64c-3.25,1.29-.92-10.77-5.95-5.98-5.27,5.02-5.72,39.6-.83,40.07l6.49-2.39.32-9.7,5.98.03c.52,8.23-4.9,18.33-14.56,15.71-10.14-2.76-5.21-36.37-.97-44.25,5.94-11.01,11.14-3.35,9.51,6.52Z"/>
    <path class="st0" d="M1629.21,807.68c1.79,8.69-9.32.16-11.9,2.01-6.7,14.71,8.89,28.42,8.12,43.02-.19,3.55-8.08,13.39-10.2,10.92,1.37-6.78,4.49-11.47,4.08-18.92-.69-12.57-16.35-27.62-2.73-38.82l12.64,1.78Z"/>
    <path class="st0" d="M1529.22,1171.66c-4.62-.36-10.24.9-14.62-.39-7.86-2.33-13.72-34.6,3.13-31.31,11.6,2.27,11.83,22.29,11.49,31.7ZM1525.23,1167.66c-.13-10.39-.03-26.19-14-24.01l4.26,23.74,9.74.27Z"/>
    <path class="st0" d="M1321.22,1177.63c-3.76.88-4.75-2.1-7-3.98-10.81-9.05-30.22-41.86-36.66-55.34-1.36-2.84-3.02-5.27-2.32-8.66l45.98,67.98Z"/>
    <path class="st0" d="M879.43,749.8c15.05,2.58,23.65,21.44,14.73,33.85-17.91-4.37-24.42-17.44-14.73-33.85ZM884.22,753.69c-7.32,9.13-2.68,19.9,6,25.92,7.32-9.13,2.68-19.9-6-25.92Z"/>
    <path class="st0" d="M1289.21,379.64c3.2-3.31-6.87-19.85,1.99-17.99,3.55,13.48,4.09,26.92-13.15,18.16-7.99-6.45.26-41.01,8.18-48.14,1.35,13.41-18.72,46.07,2.98,47.98Z"/>
    <path class="st0" d="M1443.22,997.64c-17.91,3.26-35.31-5.92-14.98-19.3,7.3,3.31,16.45,10.4,14.98,19.3ZM1437.22,991.63c1.54-1.09-8.42-7.73-9.99-5.97l-.02,5.98h10.01Z"/>
    <path class="st0" d="M1057.22,983.63c-3.25,2.92-17.6-16.22-19.92-19.06-7.21-8.85-15.93-20.41-22.03-29.97-1.3-2.04-8.75-14.12-8.03-14.95l49.98,63.98Z"/>
    <path class="st0" d="M2445.21,979.67c2.65,3.96-4.15,9.78-7.9,11.08-1.94.67-10.17,2.96-10.09-1.07,6.7.94,10.1-2.26,13.98-7.03.29-1.53-1.85-1.21-3-1.01-2.36.41-29.56,10.06-31.01,11-.91.59-2.15,1.8-1.98,3,2.66,2,15.86-5.68,17.99,0-8.65.11-15.72,8.61-21.95-.98,2.86-8.41,41.5-18.66,43.96-14.98Z"/>
    <path class="st0" d="M1318.64,260.06c25.49-7.6,6.92,32.5-6.02,29.39-11-2.65-2.61-26.81,6.02-29.39ZM1311.23,285.64c3.95,4.12,21.88-14.91,16.04-21.04-9.79-6.24-17.95,13.3-16.04,21.04Z"/>
    <path class="st0" d="M1011.22,393.63c2.97-7.71,6.2-15.43,10.39-22.59,3.56-6.09,26.45-32.65,21.6-37.38-7.25-1.26-14.29,2.69-19.05,7.93-8.22,9.03,5.3,4.06,2.79,13.81-9.55,5.3-17.45,14.29-25.71,21.28-1.58,1.34-4.03,5.23-6.01,1.99,4.44-4.21,8.45-8.91,13.04-12.96,2.73-2.4,14.35-9.4,14.93-10.09.32-.39.87-4.61-1.46-3.96l-4.46-.05c-3.63-13.37,22.69-30.06,29-15.86,3.75,8.44-15.99,28.66-21.12,36.86-.96,1.54-10.06,25.08-13.94,21.04Z"/>
    <path class="st0" d="M2057.2,1185.65c-6.77-3.75-3.15-22.16-13-22.12-7.21.03-12,27.57-16.97,22.1,4.26-33.26,32.26-37.21,29.97.01Z"/>
    <path class="st0" d="M1680.06,982.88c.23.57,8.27,7.25,1.18,10.76l-12.25-29.73c-3.32-2.1-11.11,1.8-9.77,3.71,1.74.07,13.36,4.7,9.98,8.03l-17.93-6.99c16.24-24.83,22.52-1.52,28.79,14.21Z"/>
    <path class="st0" d="M1235.22,953.65c.36.4,6.03-1.77,3.66,4.64-.79,2.14-4.98,6.6-7.08,7.14-14.22,3.66-16.29-37.99-7.56-45.76,5.15-.75,1.74,2.12,1.09,5.08-.88,4.03-2.22,7.52-2.18,11.81.02,2.94,3.02,24.39,4.09,25.08,3.96,2.56,9.94-3.06,7.98-7.99-9.53,3.64-10.19-2.96-2.99-7.99,2.41,1,2.02,6.91,2.99,7.99Z"/>
    <path class="st0" d="M965.22,433.65c2.49-12.9,14.12-34.3,29.73-27.72l-.07,9.4c-12.47,4.04-22.55,10.69-25.68,24.31-4.48-.53.44-3.71-3.98-5.99-1.02,5.29-2.5,8.18,0,13.91l-5.98,2.09c3.29-11.54,2.17-18.36-9.09-23.94-4.58-7.12,7.22-11.11,13.06-10.04l-6.91,2.04c-6.73,1.22,3.24,13.88,5.4,15.52,1.21.92,2.95.13,3.52.43ZM993.21,413.62c-4.67-17.36-22.25,7.75-23.98,16.03,6.64-8.04,13.35-13.72,23.98-16.03Z"/>
    <path class="st0" d="M1253.21,413.64c-4.49-.28-27.26-4.67-25.89-10.83,3.16-14.12,31.13-5.75,25.89,10.83ZM1247.2,407.64c.02-7.29-9.31-11.35-13.95-4.99l13.95,4.99Z"/>
    <path class="st0" d="M1215.22,271.67c1.27,1.22-18.51,24.05-19.97,29.02-1.91,6.52,11.74-.72,13.96.97,5.55,5.57-30.86,36.01-35.94,15.04l16.96-27.04c.74,7.5-9.19,14.88-10.64,21.43-4.67,21.11,20.34,4.02,25.62-4.44l-10.81.93-2.87-4.52c.42-4.35,19.41-35.47,23.7-31.39Z"/>
    <path class="st0" d="M1093.21,295.66c3.35,3.32-33.07,38.57-20.67,48.09,7.82,1.13,13.95-1.41,17.05-8.76,2.57-6.08-4.89-7.18-8.61-4-1.37,1.17-.88,6.06-5.77,4.65,1-12.08,22.95-8.82,19.06.05-3.17,7.23-17.55,12.91-25.19,9.09-10.05-7.05,11.86-38.27,17.25-45,1.87-2.34,3.28-4.82,6.87-4.11Z"/>
    <path class="st0" d="M1371.22,1183.63c-5.47.66-7.24-6.17-8.96-10.02-5.22-11.66-9.36-27.28-11.02-39.96,10.74,13.47,12.14,34.29,19.98,49.98Z"/>
    <path class="st0" d="M1457.24,1103.65c14.78.34,3.3-9.5,3.97-9.97l6.03,1.13-1.88,11.99c-24.09,3.41-13.88-35.56-2.17-45.15l-9.83,28.95,3.88,13.04Z"/>
    <path class="st0" d="M1559.22,1148.65c-2.17-10.41-11.31-4.49-12-5.02,1.71-8.67,16-5.36,16,1.02v41h-4c-1.53-10.83,2.09-26.97,0-37Z"/>
    <path class="st0" d="M1537.2,613.65c-11.31-14.34-18.83-28.71-39.97-26.99,19.16-11.1,37.6,8.76,39.97,26.99Z"/>
    <path class="st0" d="M2256.72,1073.16l-7.59,1.41c-24.61-24.72,20.39-37.62,7.59-1.41ZM2253.2,1053.66c-8.77-1.34-7.25,17.09-2.96,17.99,7.91,1.66,3.74-14.33,2.96-17.99Z"/>
    <path class="st0" d="M1553.21,571.64c-4.4,4.92-20.58-25.06-17.98-27.98,8.63-1.27,20.57,25.09,17.98,27.98Z"/>
    <path class="st0" d="M1767.21,935.66c-1.93,6.19-.99,35.59-10.72,33.83-5.57-4.42-11.84-9.95-11.25-17.83l10.98,13.95c4.98.04,3.96-38.02,10.99-29.95Z"/>
    <path class="st0" d="M1197.22,1103.63c-3.75.87-4.76-2.09-7.01-3.97-14.11-11.86-25.43-30.33-34.99-45.99,4.21-.99,4.53,2.24,6.45,4.53,11.87,14.17,21.16,32.55,35.55,45.43Z"/>
    <path class="st0" d="M1449.19,259.64c-3.48.47-1.88-4.54-1.98-6.97-.33-8.5.69-17.42-.21-25.81-.76-7.04-7.46-17.44-2.78-23.2,7.74,17.49,9.07,37.27,4.97,55.98Z"/>
    <path class="st0" d="M1262.52,261.94c8.76-2.91,19.62,4.09,15.82,13.83-3.68,5.21-20.78-1.81-19.27-9.09.07-2.4,1.13-3.97,3.44-4.74ZM1273.21,271.64v-2.96c-3.35-8.59-19.27,3.4,0,2.96Z"/>
    <path class="st0" d="M1775,393.82c.59.43,5.63,11.98,3.35,13.94l-19.15,1.89c-5.04-8.83,11.06-19.29,15.8-15.83ZM1773.21,397.66c-4.65-.81-7.21,1.59-9.95,4.99,2.46,3.75,5.77,3.23,9.95,2.99v-7.98Z"/>
    <path class="st0" d="M1461.21,201.66c1.74,2.28-3.12,42.62-4.57,48.43-.5,2.02-.57,6.02-3.4,5.55-.74-9.89,2.96-19.38,3.95-29.02.73-7.09-.85-15.14.03-22,.35-2.76,1.48-6.26,3.99-2.96Z"/>
    <path class="st0" d="M2237.2,1135.65c-8.66-7.7-12.58-30.45-25.96-16,7.44-23.29,27.25,1.48,25.96,16Z"/>
    <path class="st0" d="M2093.24,1185.65l-.04-11.99-4.01,9.98c-10.49,1.46,5.34-17.89,7.03-17.95,5.81,4.99,3.51,16.69-2.98,19.96Z"/>
    <path class="st0" d="M1207.2,1101.65l-12.07-8.91-17.89-23.09c8.68,7.96,18.4,15.96,25.99,24.99,1.89,2.25,4.85,3.25,3.98,7Z"/>
    <path class="st0" d="M1747.24,1077.65l13.98,4.01,1.98-11.99c8.6,15.34-14.38,26.05-15.95,7.99Z"/>
    <path class="st0" d="M1489.22,963.65c.49.37,2.9,6.23-.98,7.4-2.65.8-15.13,1.31-17.01-2.41l17.99-4.99Z"/>
    <path class="st0" d="M1865.23,959.66c2.24,8.29-16.3,1.77-18.64.14-3.26-2.26-4.63-9.77,1.57-6.11,5.59,3.3,9.29,7,17.07,5.97Z"/>
    <path class="st0" d="M1467.22,199.63l-19.99-9.95c9-4.3,15.28,3.04,19.99,9.95Z"/>
    <polygon class="st0" points="1845.21 943.7 1844.23 949.64 1819.23 937.67 1845.21 943.7"/>
    <path class="st0" d="M1277.2,707.69v3.95s-2.96,0-2.96,0c-2.48-2.52-5.8-4.21-5.01-7.98l7.97,4.04Z"/>
    <path class="st0" d="M1195.24,285.65c-.52-4.2,4.31-7.87,7.96-10,.52,4.2-4.31,7.87-7.96,10Z"/>
    <path class="st0" d="M939.22,703.63c-1.57-.17-3.81.45-4.98,0-7.36-2.82-.99-11.78,4.98,0Z"/>
    <path class="st0" d="M2205.2,1127.65c.68,3.65-2.19,6.63-5.97,5.99v-6s5.97.01,5.97.01Z"/>
    <path class="st0" d="M1599.2,765.65l-7.98-5.98c4.8-.78,8.5.94,7.98,5.98Z"/>
    <path class="st0" d="M2375.22,369.67c-3.11,4.6-11.32,6.78-16.43,8.55-22.17,7.68-46.91,12.95-69.57,19.45,4.18,8.56,14.7,10.15,23.24,11.74,18.64,3.48,40.36,4.49,59.39,6.61,5.24,1.56,7.58,12.39,13.91,16.09,19.79,11.56,57.84,9.96,78,20,42.52,21.18,90.3,37.94,131.49,62.51,4.66,2.78,11.71,4.37,9.96,11.03-20.63-10.11-40.46-21.9-61.27-31.71-20.66-9.73-42.77-17.17-63.47-26.53-7.86-3.55-17.67-12.04-25.22-14.78-18.26-6.62-61.6-6.48-76.12-19.88-4.01-3.7-4.36-9.79-8.66-11.48-13.96-5.47-44.88-4.73-61.7-8.17-8.33-1.7-32.05-6.7-19.42-18.34l85.87-25.09Z"/>
    <path class="st0" d="M2821.24,487.65c17.41,17.9,6.14,33.09-17.96,24.94-36.42-12.31-49.05-54.03-73.58,6.53-6.18,15.27-13.75,60.32-24.57,67.43-15.46,10.15-41.41-15.48-49.53-28.28-11.98-18.89-11.51-38.84-22.36-57.64,1.59-2.73,7.02.83,8.11,2.41,4.6,6.63,7.43,30.09,11.5,39.99,5.7,13.88,18.34,29.37,31.75,36.25,13.48,6.92,18.78,6.85,24.15-7.1,7.69-19.98,17.3-87.13,43.67-90.49,13.13-1.68,20.45,9.9,30.18,15.61,6.14,3.6,36.78,19.65,40.35,9.08l-1.69-18.72Z"/>
    <path class="st0" d="M2811.22,491.67c-8.24,10.89-24.48-2.73-32.63-8.39-11.49-7.97-23.61-24.27-39.28-18.55-15.78,5.76-31.33,42.94-35.52,58.49s-2.25,54.31-29.28,38.11c-15.03-9.01-23.62-44.96-25.27-61.69,7.97,4.3,6.85,16.42,9.91,25.07,4.35,12.29,13.96,39.2,30.76,35.03,8.59-28.73,11.61-60.74,31.35-85.06,35.61-43.87,53.18,18.37,89.96,16.98Z"/>
    <path class="st0" d="M1817.25,249.66c-7.31,16.09-11.18,33.29-14.06,50.73-12.8,4.47-8.59-20.43-14.21-29.5-4.62-7.45-14.58-5.76-16.86-9.14-6.02-8.96,7.56-20.71,17.89-13.89,5.17,3.41,6.39,13.62,8.69,19.4,1.21,3.04-1.16,5.41,4.5,4.39-1.3-10.44,3.19-37.78,17.05-37.19,11.95.51,18.14,28.52-3.01,15.2ZM1824.71,240.17c-11.11-11.34-20.12,21.63-19.47,29.47l10.09-23.9,11.88,3.9c.15-2.92-.44-7.37-2.5-9.47ZM1805.2,273.65l-6.95.1-8.95-23.18-13.23.93v8.29c20.46,2.49,17.19,19.3,24.15,33.84l4.97-19.99Z"/>
    <path class="st0" d="M1935.22,353.62c11.95-13.79,17.71-25.6,35-9.89l13.97-10.1,24.99,19.03c-10.8,13.07-18.87,18.87-32.98,5.32-16.12,20.21-23.99,1.8-40.98-4.35ZM1984.62,339.86l-10.69,9.47-19.3-7.42-11.38,10.74,17.27,10.59,15.65-9.57c12.89,5.67,16.29,13.72,27.01-1.02-3.76-3.44-13.98-13.98-18.55-12.79Z"/>
    <path class="st0" d="M2098.59,138.27c3.26,4.5,3.96,40.27,2.23,45.98-1.83,6.02-15.05,15.95-20.61,19.35-2.63-.13-4.75-22.62-4.97-26.97-.79-15.98-2.18-38.03,16.46-42.64,1.84,1.36,5.72,2.66,6.89,4.28ZM2081.22,148.65c-1.99,9.4,0,32.7,0,44,0,.25-3.88,4.88.99,4.95,2.88.04,13.03-10.3,14.12-13.84,1.66-5.4,1.54-41.75-1.2-44.02-5.68-2.03-12.81,3.76-13.91,8.91Z"/>
    <path class="st0" d="M2307.23,403.64c-.97-5.55,1.16-3.36,4.38-4.5,18.53-6.55,39.96-10.46,58.67-17.02,7.42,5.36,3.44,15.22,6.42,22.63-.76,4.36-29,3.39-34.55,2.98-11.64-.85-22.78-5.94-34.92-4.08ZM2369.21,387.66l-41.98,10.98c4.62,3.91,40.5,6.52,42,5.02l-.02-16Z"/>
    <path class="st0" d="M1926.52,223.18c-.24.56-3.12.4-3.08,1.34.06,1.31,1.8,3.62,1.8,6.07.02,9.93-.34,19.88.24,29.79l9.75,3.28c.6,5.93-1.4,11.31-6.05,15.1l-4.53.57c-16.4-7.88-6.03-39.09-2.46-53.69l-96.98,50c28.28-26.21,68.6-38.96,101.01-59.97,2.2,1.13,1.12,5.55.3,7.51ZM1931.22,267.67c-2.4.02-5.25.02-6.99-1.98-2.75-3.17-.85-10.91-4.99-12.03.15,5.76-1.34,15.64,2.95,20.02,4.94,5.04,10.46.28,9.03-6Z"/>
    <path class="st0" d="M2151.34,217.54c-6.38-10.77-8.03-43.07,10.4-39.57,19.44,3.69,5.74,39.51-10.4,39.57ZM2163.71,191.33c-.46-.95,3.7-8.58-1.53-9.69-10.88-2.31-14.98,26.12-7.93,31.99,4.05.86,13.75-16.98,13.11-20.84-.2-1.23-3.49-1.13-3.65-1.47Z"/>
    <path class="st0" d="M1797.22,163.67l-6.6,6.38-83.4,33.58c5.1-5.57,15.36-9.08,22.64-12.34,22.11-9.89,45-18.36,67.36-27.62Z"/>
    <path class="st0" d="M1687.21,207.66c-5.99-1.05-3.15,1.62-4.2,4.69-2.59,7.57-11.94,36.27-3.8,40.31,15.08,7.49,13.16-15.03,15.01-15.03,7.11,23.51-23.5,28.93-21.02,1.01.39-4.44,8.76-36.93,11.02-36.95,6.51,1.7,11.76,31.81,5,26.98l-2.01-21.01Z"/>
    <path class="st0" d="M2383.73,352.19c-2.61,1.64-1.32,9.12-9.63,3.58-21.92-14.6,13.45-37.47,19.02-7.26-1.8,4.1-6.94,2.14-9.39,3.67ZM2389.21,347.64c2.51-2.22-7.3-10.52-9.94-11.23-3.06-1.58-6.98,2.04-8.03,4.27-2.06,4.37,8.36,1.04,8.84,5.03l9.13,1.93ZM2379.21,347.66l-5.98.98,5.97,5.01v-5.99Z"/>
    <path class="st0" d="M2608.9,465.96c1.46,2.46-.78,8.96,1.33,13.68.55,1.24,14.42,14.62,17.98,20.03,1.98,3.01,4.87,2.13.01,5.94-5.19-8.13-14.58-14.72-19.48-22.47-2.94-4.65-4.89-13.72-5.98-15.02-2.44-2.92-14.45-2.89-17.53-7.48,3.06-3.73,22.93,4.09,23.67,5.32Z"/>
    <path class="st0" d="M2554.65,393.99c11.69-3.41,25.36,12.29,15.76,19.85-8.99,7.07-24.1-4-20.85-14.76.67-2.27,2.82-4.43,5.09-5.09ZM2569.21,411.64c3.01-5.87-11.75-16.18-13.98-13.99-3.58,10.35,3.56,15.27,13.98,13.99Z"/>
    <path class="st0" d="M2770.05,438.82c8.61,8.84,23.68,26.32,27.23,37.85,1.04,3.39,3.01,4.1-1.07,6.96-4.9-11.68-12.21-23.75-20.16-33.82-3.95-5.01-17.2-15.6-18.82-19.19-.48-1.06-.38-3.38.97-2.96,6.06,2.37,8.04,7.26,11.84,11.16Z"/>
    <path class="st0" d="M1947.22,371.67c-.55,3.5-4.02,3.45-6.46,4.52-15.88,7-32.53,13.73-49.53,17.45-1.34-4.88,4.82-5.68,8.04-6.9,15.12-5.71,32.29-11.66,47.95-15.07Z"/>
    <path class="st0" d="M2165.76,291.11c-3.17-3.92-2.52-12.85,2.8-15.28,3.57-1.16,19.3,5.36,20.39,9.23,3.8,13.43-17.88,12.61-23.19,6.05ZM2167.23,279.66c-.98,8.24,2.57,12.6,10.98,12.18,16.65-.82-2-14.71-10.98-12.18Z"/>
    <path class="st0" d="M2689.2,417.65c-8.58-2.55-8.29-10.06-13.15-15.84l-30.82-26.14c19.13,5.98,37.32,22.93,43.97,41.98Z"/>
    <path class="st0" d="M2679.21,427.64l-19.97-21.01-14.02-10.96c15.05,3.86,30.23,16.68,33.99,31.97Z"/>
    <path class="st0" d="M1933.22,351.65h-31c-1.57,0-14-4.19-11.98-8.02,6.56,1.52,13.3,3.26,20.01,3.99,7.24.8,18.89-3.07,22.97,4.03Z"/>
    <path class="st0" d="M1859.2,133.61c-.42.5-8.78,4.05-11.28,6.74-7.81,8.43-4.98,22.76-16.69,25.29l-1.99-25.99,5.07,5.91,2.89,16.08c-2.38-15.47,7.09-26.95,21.05-31.96l.96,3.93Z"/>
    <path class="st0" d="M2123.23,203.64c9.52-1.04.58,15.21-2.97,15.48-.69.05-7.8-3.23-8.52-3.98-8.52-8.87,5.73-32.43,10.5-41.48.93,12.83-10.67,21.49-9.15,35.05s13.15,6.53,10.14-5.07Z"/>
    <path class="st0" d="M1989.22,367.67c-9.48,9-23.08,14.65-35.99,15.96l27.21-13.76,8.78-2.2Z"/>
    <path class="st0" d="M2495.22,261.63l-26.04-12.94-5.96-5.02c10.65,4.26,24.78,8.93,32,17.96Z"/>
    <path class="st0" d="M1871.22,389.63c5.07-7.13,11.31-13.69,19.98-15.98,1.99,1.84-10.39,12.01-11.89,13.09-2.72,1.97-4.15,3.74-8.09,2.89Z"/>
    <path class="st0" d="M2477.2,263.68c.28.26-.1,1.31,0,1.96-4.08.09-7.9-1.84-11.98-2v-1.96c1.43-.68,11.03,1.13,11.97,2Z"/>
    <path class="st0" d="M2835.7,685.18c5.53,5.31,17.6-1.87,23.61,15.38,6.43,18.47-.71,64.75-9.13,83.06-1.68,3.66-4.63,12.67-8.95,9.05,11.35-15.89,24.85-88.16,9.15-99.18-6.72-4.72-24.73.9-20.82-18.36,3.51-17.25,23.36-10.33,34.23-5.74l12.54-13.63c1.24-24.4-9.97-48.03-13.1-72.09,2.84.05,3.93,5.68,4.9,8.07,5.74,14.06,16.73,52.8,12.67,66.51-.93,3.15-15.2,16.7-18.59,16.71-4.79.01-12.77-9.06-21.06-6.51-6.56,2.02-10.55,11.87-5.47,16.74Z"/>
    <path class="st0" d="M2649.21,903.67l-25.81,33.19c-1.81,4.8,7.41,2.84,10,6.12,6.4,8.09-21.86,25.64-29.35,18.86-1.63-1.39-2.64-3.08-2.85-5.25-1.27-13.17,31.89-53.2,48-52.92ZM2631.22,945.67l-10.11-.9c-9.09-6.11,11.58-22.28,12.09-29.11-7.72,4.42-28.1,31.98-27.99,39.11.18,11.33,24.11-2.04,26.01-9.09Z"/>
    <path class="st0" d="M2857.22,813.63c8.66-23.47,17.96-49.88,19.97-75.01,1.47-18.46-6.03-46.46,8.01-58.97-4.45,8.81-1.49,15.39-1.82,22.98-1.32,30.44-5.02,77.25-19.15,105.03-1.6,3.14-2.42,6.78-7.01,5.97Z"/>
    <path class="st0" d="M2825.22,625.67c-20.08,2.79-20.01-17.46-17.98-32.01l5.08,23.89c2.62,6.33,11.34,2.6,15,4.99,5.44,3.56-1.71,28.73-20.85,18.85-19.25-9.94-8.49-37.37-5.23-53.72,3.44-.38,2.19,6.9,2.05,9.06-.87,13.65-10.74,34.13,5.95,41.9,11.29,5.25,12.87-4.75,15.97-12.95Z"/>
    <path class="st0" d="M2636.67,997.98c23.61-4.85-12.01,52.22-21.5,26.59-.69-7.18,14.23-25.09,21.5-26.59ZM2643.22,1001.67c-10.9-.3-19.13,11.39-22.36,20.67-1.04,2.99-2.41,2.35,1.4,5.32,12.52-2.79,14.88-16.81,20.96-25.99Z"/>
    <path class="st0" d="M2861.21,827.66c.91,5.14-.83,3.58-4,4.88-16.08,6.6-33.68,1.73-49.99-.91-7.25-6.9,19.02-1.91,20.91-1.88,11.12.19,22.18.35,33.08-2.09Z"/>
    <path class="st0" d="M2702.65,872.24c2.52,2.06,8.79,15.12,6.55,17.4-7.93-.32-26.65-2.75-23.19-14.03,2.3-7.51,11.2-7.81,16.63-3.37ZM2703.21,883.64c2.89-2.82-10.61-13.91-11.98-6.96-.87,4.42,8.83,6.92,11.98,6.96Z"/>
    <path class="st0" d="M2772.97,639.88c.55.94.58,3.82.23,4.75-2.37,6.35-13.18-.25-3.96-1.94l-11.15-16.99c-12.22,2.36-18.8,18.19-3.04,20.13,1.55,14.36-13.98-1.66-13.38-8.85.52-6.21,9.55-16.24,16.29-14.94,5.54,1.07,6.25,11.18,9.17,14.76,1.62,1.98,5.55,2.59,5.83,3.08Z"/>
    <path class="st0" d="M2769.22,839.63c-9.45-3.42-22.84-4.82-30-11.96,9.95,1.73,23.26,3.57,30,11.96Z"/>
    <path class="st0" d="M2885.24,657.65l5.96-21.99c.05,7.05,1.08,17.69-5.96,21.99Z"/>
    <path class="st0" d="M2867.2,727.64c-4.53-1.77-.85-12.03-1.96-15.98,4.53,1.77.85,12.03,1.96,15.98Z"/>
    <path class="st0" d="M1651.22,411.63c.52-5.71,17.28-24.42,13.99-27.97l-25.2,11.81-2.78-3.79,28.84-11.93c2.96,1.64,3.35,3.54,3.16,6.73-.42,6.98-8.61,9.05-7.02,15.15,8.67-7.06,22.45-27.68,18.75-38.69-2.95-8.78-25.8,2.78-31.13,6.31-5.93,3.92-11.72,8.87-12.63,16.38-4.25.04-1.35-7.68-.46-9.47,5.96-11.98,44.68-31.11,48.44-11.46,3.33,17.4-17.29,42.46-33.95,46.92Z"/>
    <path class="st0" d="M1655.2,435.61l25.14,7.95c-2.92,21.21-25.06,33.2-45.01,26.12-1.8,1.36-4.53,19.27-12.11,17.96-2.31-2.43,26.69-53.75,33-57.98l-1.02,5.95ZM1677.21,445.66c-8.19.51-15.76-1.35-21.04-7.98l-2.93-.03c-1.93,11.12-13.9,18.07-14.01,29.99,7.02-2.64,11.67,1.83,19.47-1.52,3.09-1.33,20.88-18.39,18.5-20.47Z"/>
    <path class="st0" d="M1315.5,669.4c-3.42-5.59,6.4-16.1,12.54-15.79,8.44.43,18.02,14.98,23.14,21.04-2.3,3.39-3.11,2.64-6.41,2.51-3.73-.15-28.11-5.87-29.27-7.76ZM1341.2,671.65c-1.71-9.08-11.76-14.36-19.89-9.87l-.1,5.85,19.99,4.01Z"/>
    <path class="st0" d="M2321.22,215.65c-2.48,3.12-3.79.89-4.16,6.81-.68,11,3.3,24.09,4.15,35.18l-5.98.02c3.76-11-10.21-47.9-.65-54.16,8.18-5.36,20.95,4.34,13.25,12.25-2.2.03-4.41-.02-6.61-.1,1.44-1.81,2.58-1.71,4.06-3.05.97-7.68-5.74-8.4-10.14-3.66l.08,6.7c1.99.11,4-.06,6,0Z"/>
    <path class="st0" d="M1204.48,747.85c3.81-.54,4.48,3.61,5.38,6.16,1.81,5.12,8.02,32.38,6.44,35.63-2.54,5.21-26.03,13.96-32.19,14.09-36.07.78,9.77-54.37,20.37-55.88ZM1205.21,755.66c-2.25-2.36-18.91,15.62-20.81,18.17-5.19,6.96-9.62,14.76-9.18,23.81,13.88,1.68,25.73-2.41,37.15-9.92l-7.15-32.07Z"/>
    <path class="st0" d="M872.6,572.23c10.68,12.98-11.82,30.41-18.51,9.52-4.83-15.11,11.26-18.34,18.51-9.52ZM859.23,571.66c-3,12.32,8.21,24.29,11.8,7.35-.79-3.04-10.32-8.99-11.8-7.35Z"/>
    <polygon class="st0" points="2203.22 1063.65 2199.04 1044.63 2203.22 1035.65 2203.22 1063.65"/>
    <path class="st0" d="M1208.73,1003.15c-1.14,1.32-4.9,2.31-6.72,2.42-22.05,1.34-18.51-32.46-12.77-45.91,14.73,1.71,28.86,32.67,19.49,43.49ZM1191.24,963.65c-.42,12.31-6.07,35.54,10.82,37.95,11.63-11.59-1.14-29.31-10.82-37.95Z"/>
  </g>
</svg>
